<svg width="104" height="104" viewBox="0 0 104 104" fill="none" xmlns="http://www.w3.org/2000/svg">
<path d="M2 24.3478V70.3386C2 74.3531 5.28503 77.6329 9.29419 77.6329H78.7863C82.8008 77.6329 86.0805 74.3478 86.0805 70.3386V24.3478H2ZM2 24.3478L86.0911 24.3478M31.6507 6.94284H56.4404M48.076 77.6382H9.29419C5.27971 77.6382 2 74.3531 2 70.344V14.2477C2 10.2332 5.28503 6.9535 9.29419 6.9535H19.2718M68.8139 6.94284H78.7915C82.806 6.94284 86.0857 10.2279 86.0857 14.237V47.6254M62.627 13.8857V0M25.4639 0V13.8857M62.6273 44.9473V34.8206H72.754M38.9822 44.9473V34.8206H49.1089M15.3371 44.9473V34.8206H25.4639M38.9822 67.1654V57.0387H49.1089M15.3371 67.1654V57.0387H25.4639M86.0912 14.2424C86.0912 10.2279 82.8062 6.94816 78.797 6.94816H9.30492C5.29043 6.94816 2.01066 10.2332 2.01066 14.2424V24.3478H86.0965V14.2424H86.0912Z" stroke="#1955A6" stroke-width="4" stroke-miterlimit="10" stroke-linejoin="round"/>
<path d="M102 69.7264H86.0916V53.8176H70.1774V69.7264H54.2686V85.6353H70.1774V101.549H86.0916V85.6353H102V69.7264Z" fill="#1955A6" stroke="white" stroke-width="4" stroke-miterlimit="10" stroke-linecap="round" stroke-linejoin="round"/>
</svg>
