<svg width="105" height="104" viewBox="0 0 105 104" fill="none" xmlns="http://www.w3.org/2000/svg">
<path d="M41.0586 28.1207H35.9527C31.081 28.1207 27.1357 32.066 27.1357 36.9377V51.1321C27.1357 64.677 37.3583 76.5022 50.8713 77.3754C65.6834 78.3337 77.993 66.6044 77.993 52V36.9377C77.993 32.066 74.0477 28.1207 69.176 28.1207H64.07" stroke="#1955A6" stroke-width="4" stroke-miterlimit="10" stroke-linejoin="round"/>
<path d="M52.5586 77.4287V85.9209C52.5586 95.414 62.1316 102 70.9592 98.5021C77.3643 95.9677 83.1251 92.1449 87.9116 87.3531C96.9575 78.3072 102.559 65.8058 102.559 52C102.559 38.1943 96.9628 25.6929 87.9116 16.647C78.8603 7.60111 66.3644 2 52.5586 2C38.7528 2 26.2514 7.59579 17.2055 16.647C8.15958 25.6982 2.55859 38.1943 2.55859 52C2.55859 65.8058 8.15426 78.3072 17.2055 87.3531" stroke="#1955A6" stroke-width="4" stroke-miterlimit="10" stroke-linejoin="round"/>
<path d="M22.7112 101.995C28.2423 101.995 32.7262 97.511 32.7262 91.9799C32.7262 86.4488 28.2423 81.965 22.7112 81.965C17.1802 81.965 12.6963 86.4488 12.6963 91.9799C12.6963 97.511 17.1802 101.995 22.7112 101.995Z" fill="white" stroke="#1955A6" stroke-width="4" stroke-miterlimit="10" stroke-linecap="round" stroke-linejoin="round"/>
<path d="M41.0576 21.311V34.9252" stroke="#1955A6" stroke-width="4" stroke-miterlimit="10" stroke-linejoin="round"/>
<path d="M63.8145 21.311V34.9252" stroke="#1955A6" stroke-width="4" stroke-miterlimit="10" stroke-linejoin="round"/>
</svg>
