<svg width="20" height="18" viewBox="0 0 20 18" fill="none" xmlns="http://www.w3.org/2000/svg">
<path d="M14.2106 7.42115H13.1579C12.2863 7.42018 11.5799 6.71378 11.5789 5.84226V4.78956C11.5779 4.37066 11.7445 3.96863 12.0415 3.67325L15.662 0.0527344H2.63159C1.17879 0.0543405 0.00160619 1.23152 0 2.68432V12.158C0.00160619 13.6108 1.17879 14.7881 2.63159 14.7896H7.36841V17.4211C7.36841 17.7119 7.60404 17.9475 7.89476 17.9475C8.00864 17.9475 8.11947 17.9106 8.21054 17.8421L12.2813 14.7896H17.3684C18.8212 14.788 19.9986 13.6106 20 12.158V2.2855L15.3269 6.95856C15.0314 7.25571 14.6295 7.42211 14.2106 7.42115ZM3.68429 3.21067H8.94746C9.23802 3.21067 9.47365 3.4463 9.47365 3.73702C9.47365 4.02758 9.23802 4.26321 8.94746 4.26321H3.68429C3.39357 4.26321 3.15794 4.02774 3.15794 3.73702C3.15794 3.4463 3.39357 3.21067 3.68429 3.21067ZM3.68429 6.36845H8.94746C9.23802 6.36845 9.47365 6.60408 9.47365 6.8948C9.47365 7.18552 9.23802 7.42115 8.94746 7.42115H3.68429C3.39357 7.42115 3.15794 7.18552 3.15794 6.8948C3.15794 6.60424 3.39357 6.36845 3.68429 6.36845ZM16.8421 10.0527C16.8421 10.3435 16.6064 10.5791 16.3159 10.5791H3.68429C3.39357 10.5791 3.15794 10.3435 3.15794 10.0527C3.15794 9.76217 3.39357 9.52638 3.68429 9.52638H16.3159C16.6064 9.52638 16.8421 9.76201 16.8421 10.0527Z" fill="#0772B5"/>
</svg>
