<svg width="104" height="105" viewBox="0 0 104 105" fill="none" xmlns="http://www.w3.org/2000/svg">
<path d="M27.6139 35.2989C27.3018 32.9531 27.1406 30.5189 27.1406 28.017H27.125C27.125 13.651 38.2662 2 52.0029 2C65.7448 2 76.8809 13.6458 76.8809 28.017C76.8809 30.5189 76.7196 32.9531 76.4075 35.2989H76.3919C75.9966 38.6953 73.4324 41.0775 70.2023 41.0775C69.8694 41.0775 69.547 41.0307 69.2245 40.9787C66.5042 52.0211 59.8257 59.8439 52.0029 59.8439C44.1749 59.8439 37.4964 52.0211 34.7813 40.9787C34.4641 41.0307 34.1416 41.0775 33.8035 41.0775C30.5787 41.0775 28.0092 38.6953 27.6139 35.2989Z" fill="white" stroke="white" stroke-width="4" stroke-miterlimit="10" stroke-linecap="round" stroke-linejoin="round"/>
<path d="M51.9766 2.01562C38.2347 2.01562 27.0986 13.6614 27.0986 28.0326H27.1143C27.1143 28.7192 27.1559 29.385 27.1819 30.0612C34.2869 27.6686 38.422 23.0862 41.2463 17.3855C41.2463 17.3803 41.2411 17.3803 41.2411 17.3751L41.2515 17.3803C41.2515 17.3803 41.2515 17.3855 41.2463 17.3855C45.1837 25.406 56.715 31.1066 68.4544 31.1066C71.3619 31.1066 74.1602 30.7581 76.7921 30.108C76.8181 29.4162 76.8597 28.7348 76.8597 28.0326C76.8597 13.6614 65.7185 2.01562 51.9766 2.01562Z" fill="white"/>
<path d="M41.2463 17.3855C38.422 23.0862 34.2869 27.6686 27.1819 30.0612C27.1559 29.385 27.1143 28.7192 27.1143 28.0326H27.0986C27.0986 13.6614 38.2347 2.01562 51.9766 2.01562C65.7185 2.01562 76.8597 13.6614 76.8597 28.0326C76.8597 28.7348 76.8181 29.4162 76.7921 30.108C74.1602 30.7581 71.3619 31.1066 68.4544 31.1066C56.715 31.1066 45.1837 25.406 41.2463 17.3855ZM41.2463 17.3855C41.2463 17.3803 41.2411 17.3803 41.2411 17.3751L41.2515 17.3803C41.2515 17.3803 41.2515 17.3855 41.2463 17.3855Z" stroke="white" stroke-width="4" stroke-miterlimit="10" stroke-linecap="round" stroke-linejoin="round"/>
<path d="M3.84353 102.162L2.02307 77.5492C1.65898 72.634 5.64842 67.9684 10.8914 67.1934L35.0826 63.8698L50.4474 101.106C50.9571 102.474 53.0428 102.474 53.5526 101.106L68.9173 63.8698L93.1087 67.1934C98.3516 67.9736 102.341 72.634 101.977 77.5492L100.156 102.162H3.84353Z" fill="white" stroke="white" stroke-width="4" stroke-miterlimit="10" stroke-linecap="round" stroke-linejoin="round"/>
<path d="M27.6139 35.2989C27.3018 32.9531 27.1406 30.5189 27.1406 28.017H27.125C27.125 13.651 38.2662 2 52.0029 2C65.7448 2 76.8809 13.6458 76.8809 28.017C76.8809 30.5189 76.7196 32.9531 76.4075 35.2989H76.3919C75.9966 38.6953 73.4324 41.0775 70.2023 41.0775C69.8694 41.0775 69.547 41.0307 69.2245 40.9787C66.5042 52.0211 59.8257 59.8439 52.0029 59.8439C44.1749 59.8439 37.4964 52.0211 34.7813 40.9787C34.4641 41.0307 34.1416 41.0775 33.8035 41.0775C30.5787 41.0775 28.0092 38.6953 27.6139 35.2989Z" stroke="#1955A6" stroke-width="4" stroke-miterlimit="10" stroke-linejoin="round"/>
<path d="M76.8284 30.0923C74.1965 30.7425 71.393 31.091 68.4803 31.091C56.7357 31.091 45.1991 25.3851 41.2617 17.3595" stroke="#1955A6" stroke-width="4" stroke-miterlimit="10" stroke-linejoin="round"/>
<path d="M52.0029 67.1466V81.2058" stroke="#1955A6" stroke-width="4" stroke-miterlimit="10" stroke-linejoin="round"/>
<path d="M3.84353 102.162L2.02307 77.5492C1.65898 72.634 5.64842 67.9684 10.8914 67.1934L35.0826 63.8698L50.4474 101.106C50.9571 102.474 53.0428 102.474 53.5526 101.106L68.9173 63.8698L93.1086 67.1934C98.3516 67.9736 102.341 72.634 101.977 77.5492L100.156 102.162" stroke="#1955A6" stroke-width="4" stroke-miterlimit="10" stroke-linejoin="round"/>
<path d="M70.2432 93.5901H87.3815" stroke="#1955A6" stroke-width="4" stroke-miterlimit="10" stroke-linejoin="round"/>
<path d="M78.8096 102.162V85.0236" stroke="#1955A6" stroke-width="4" stroke-miterlimit="10" stroke-linejoin="round"/>
</svg>
