<svg width="16" height="16" viewBox="0 0 16 16" fill="none" xmlns="http://www.w3.org/2000/svg">
<g clip-path="url(#clip0_55_303)">
<path d="M15.8825 1.32335L15.0824 0.523422C14.9264 0.367294 14.6732 0.367172 14.5171 0.523178C14.517 0.5233 14.5169 0.5233 14.5169 0.523422L9.7168 5.32335C9.64185 5.39843 9.59961 5.50011 9.59961 5.60619V6.40624C9.59961 6.62707 9.77869 6.80614 9.99963 6.80614H10.7997C10.9058 6.80614 11.0074 6.76403 11.0824 6.68908L15.8825 1.88902C16.0386 1.7329 16.0387 1.47984 15.8827 1.32359C15.8826 1.32359 15.8825 1.32347 15.8825 1.32335Z" fill="#13860E"/>
<path d="M10.8001 7.60633H10C9.33753 7.6056 8.80067 7.06873 8.79994 6.40638V5.60633C8.7992 5.28797 8.92579 4.98242 9.1515 4.75794L11.9031 2.00635H2C0.895875 2.00757 0.0012207 2.90222 0 4.00635V11.2063C0.0012207 12.3104 0.895875 13.2052 2 13.2063H5.59998V15.2063C5.59998 15.4273 5.77906 15.6063 6.00001 15.6063C6.08655 15.6063 6.17078 15.5783 6.24 15.5263L9.33375 13.2063H13.2C14.3041 13.2051 15.1989 12.3103 15.2 11.2063V3.70325L11.6484 7.25477C11.4238 7.4806 11.1184 7.60706 10.8001 7.60633ZM2.80005 4.40637H6.80006C7.02088 4.40637 7.19996 4.58545 7.19996 4.8064C7.19996 5.02722 7.02088 5.2063 6.80006 5.2063H2.80005C2.5791 5.2063 2.40003 5.02735 2.40003 4.8064C2.40003 4.58545 2.5791 4.40637 2.80005 4.40637ZM2.80005 6.80628H6.80006C7.02088 6.80628 7.19996 6.98536 7.19996 7.2063C7.19996 7.42725 7.02088 7.60633 6.80006 7.60633H2.80005C2.5791 7.60633 2.40003 7.42725 2.40003 7.2063C2.40003 6.98548 2.5791 6.80628 2.80005 6.80628ZM12.7999 9.60633C12.7999 9.82728 12.6209 10.0064 12.4 10.0064H2.80005C2.5791 10.0064 2.40003 9.82728 2.40003 9.60633C2.40003 9.38551 2.5791 9.20631 2.80005 9.20631H12.4C12.6209 9.20631 12.7999 9.38538 12.7999 9.60633Z" fill="#CCF5B3"/>
</g>
<defs>
<clipPath id="clip0_55_303">
<rect width="16" height="16" fill="white"/>
</clipPath>
</defs>
</svg>
