<svg width="16" height="17" viewBox="0 0 16 17" fill="none" xmlns="http://www.w3.org/2000/svg">
<path d="M10.9546 16.4626H12.9546C13.5546 16.4626 13.9546 16.0626 13.9546 15.4626V8.4626H14.9546C15.2546 8.4626 15.5546 8.3626 15.7546 8.1626C16.1546 7.7626 16.0546 7.1626 15.6546 6.7626L8.65464 0.762598C8.25464 0.462598 7.75464 0.462598 7.35464 0.762598L0.35464 6.7626C-0.0453602 7.1626 -0.14536 7.7626 0.25464 8.1626C0.35464 8.3626 0.65464 8.4626 0.95464 8.4626H1.95464V15.4626C1.95464 16.0626 2.35464 16.4626 2.95464 16.4626H4.95464C5.55464 16.4626 5.95464 16.0626 5.95464 15.4626V12.4626H9.95464V15.4626C9.95464 16.0626 10.3546 16.4626 10.9546 16.4626Z" fill="#73BE44"/>
</svg>
