<svg width="21" height="22" viewBox="0 0 21 22" fill="none" xmlns="http://www.w3.org/2000/svg">
<path d="M1 20.3845V4.1345L5.5 1L10 4.1345V7.3845H19.5385V20.3845H1ZM2 19.3845H5V16.3845H2V19.3845ZM2 15.3845H5V12.3845H2V15.3845ZM2 11.3845H5V8.3845H2V11.3845ZM2 7.3845H5V4.3845H2V7.3845ZM6 7.3845H9V4.3845H6V7.3845ZM6 19.3845H18.5385V8.3845H6V19.3845ZM12.3847 12.3845V11.3845H15.7693V12.3845H12.3847ZM12.3847 16.3845V15.3845H15.7693V16.3845H12.3847ZM9 12.3845V11.3845H10V12.3845H9ZM9 16.3845V15.3845H10V16.3845H9Z" stroke="#75B2D8" stroke-width="1.5" stroke-linecap="round" stroke-linejoin="round"/>
</svg>
