<svg width="174" height="70" viewBox="0 0 174 70" fill="none" xmlns="http://www.w3.org/2000/svg">
<path d="M64.6596 26.4088C64.495 26.4418 64.264 26.4917 63.9669 26.5583C63.6864 26.6082 63.3237 26.691 62.9114 26.7577C62.7133 26.7745 62.4991 26.8076 62.2682 26.8406C62.0373 26.8574 61.7896 26.8904 61.5427 26.9072C61.2789 26.9403 61.0146 26.9571 60.7509 26.9571C60.4704 26.9739 60.19 26.9901 59.9096 26.9901C59.3159 26.9733 58.7055 26.9901 58.0784 26.9234C57.7651 26.9066 57.4352 26.8904 57.1219 26.8568C56.792 26.8069 56.462 26.7739 56.1488 26.7241C55.9835 26.691 55.8188 26.6742 55.6542 26.6574L55.1595 26.5577C54.8296 26.4749 54.4996 26.4082 54.1697 26.3422C53.5265 26.1926 52.8833 25.9939 52.2394 25.8107C51.6129 25.5784 51.0186 25.3628 50.4249 25.1466C49.8474 24.8812 49.3032 24.632 48.7751 24.3996C48.4947 24.3 48.2638 24.1504 48.0162 24.0177C47.7853 23.9012 47.5544 23.7685 47.3234 23.6688C46.8783 23.4196 46.4654 23.2371 46.1194 23.0047C45.8557 22.8552 45.6408 22.7225 45.4266 22.606C45.6743 22.4565 45.9052 22.3406 46.1361 22.1911C47.1093 21.5768 48.0162 20.8467 48.7751 20.0498C49.1707 19.6518 49.5341 19.22 49.8641 18.7883C49.8808 18.7883 49.8969 18.8051 49.9303 18.8051C49.9799 18.8219 50.0461 18.8219 50.1284 18.8381C50.2603 18.8549 50.4417 18.888 50.6398 18.9048C50.854 18.9216 51.0849 18.9216 51.3325 18.9216H51.7281C51.8767 18.9216 52.0085 18.8886 52.1571 18.8886C52.4375 18.8388 52.7508 18.8057 53.064 18.7391C53.3772 18.6562 53.6744 18.6064 54.0044 18.4899C54.1857 18.4232 54.3671 18.3572 54.5485 18.2905C54.6476 18.3734 54.7466 18.473 54.8617 18.5727C54.9936 18.6556 55.1422 18.7721 55.3236 18.888C55.4882 18.9876 55.6863 19.0705 55.8844 19.187C56.0825 19.3035 56.3134 19.3534 56.5444 19.4362C56.792 19.5359 57.0229 19.5857 57.2866 19.6518C57.5342 19.7184 57.7812 19.7514 58.0456 19.8175C58.5569 19.9003 59.0683 19.9502 59.5468 19.967C60.0254 19.9838 60.4705 19.9502 60.8499 19.934C61.625 19.8673 62.1203 19.7346 62.1203 19.7346C62.1203 19.7346 61.9884 19.7346 61.7736 19.7346C61.5427 19.7178 61.2294 19.6848 60.8667 19.6518C60.6685 19.6349 60.4711 19.6187 60.2563 19.5851C60.0421 19.5683 59.8272 19.5184 59.5963 19.4854C59.3654 19.4524 59.1345 19.3857 58.8869 19.3359C58.656 19.286 58.4251 19.2194 58.1774 19.1702C57.9465 19.0873 57.7156 19.0206 57.4847 18.9378C57.2705 18.8549 57.0557 18.7714 56.8415 18.6724C56.6434 18.5896 56.4459 18.5067 56.2639 18.3902C56.0825 18.2905 55.9011 18.2245 55.7693 18.1248C55.6535 18.0581 55.5384 17.9921 55.4393 17.9423C55.5712 17.8756 55.703 17.7927 55.8516 17.7429C56.1488 17.5934 56.4125 17.4277 56.6929 17.2613C56.9566 17.1118 57.2043 16.9293 57.4352 16.7635C57.6661 16.5972 57.8803 16.4315 58.0784 16.2658C58.4579 15.9505 58.7383 15.6515 58.9364 15.4521C59.085 15.2864 59.184 15.1699 59.2169 15.1201C59.1673 15.1531 59.0355 15.2366 58.8702 15.3693C58.656 15.5518 58.3093 15.7842 57.897 16.0334C57.6989 16.1661 57.468 16.2988 57.2204 16.4315C56.9895 16.5642 56.709 16.6807 56.4453 16.8134C56.1649 16.9299 55.9012 17.0788 55.604 17.1785C55.4554 17.2283 55.3068 17.295 55.1589 17.3442C55.0103 17.394 54.8617 17.4438 54.7138 17.4769C54.4166 17.5765 54.1034 17.6426 53.8069 17.7092C53.5097 17.7921 53.1965 17.8257 52.9161 17.8749C52.6189 17.9248 52.3385 17.908 52.0748 17.9416C51.811 17.9746 51.5467 17.9915 51.3158 17.9915C51.0849 17.9915 50.8707 18.0245 50.6726 18.0083H50.4249C51.0681 16.9959 51.5795 15.9661 51.959 15.0204C52.6189 13.4099 52.8993 11.9827 53.0807 10.9865C53.2293 9.99029 53.2293 9.42585 53.2293 9.42585C53.2293 9.42585 53.1631 9.99029 52.9161 10.9696C52.6852 11.9322 52.2561 13.2934 51.5139 14.821C51.1511 15.5848 50.6893 16.3816 50.1445 17.1785C49.5836 17.9584 48.9237 18.7222 48.1654 19.4362C47.9017 19.6854 47.6045 19.9178 47.3074 20.1502C47.2746 20.1003 47.225 20.0337 47.1916 19.9676C47.0925 19.7851 46.9607 19.5857 46.8288 19.3365C46.697 19.0873 46.5812 18.8051 46.4493 18.4899C46.3336 18.1578 46.2017 17.8096 46.0866 17.4277C45.9875 17.0458 45.8724 16.6308 45.7894 16.1991C45.7064 15.7674 45.6408 15.3194 45.5913 14.8547C45.5251 14.3731 45.4923 13.9083 45.4755 13.4274C45.426 12.4649 45.4588 11.5017 45.5083 10.589C45.5411 10.1411 45.5746 9.70937 45.6074 9.29445C45.6402 8.86271 45.6897 8.48081 45.7392 8.11574C45.8216 7.38559 45.9039 6.78749 45.9701 6.37258C46.0364 6.04052 46.0692 5.84115 46.0692 5.7583C46.0364 5.84115 45.9701 6.04052 45.8711 6.33957C45.7553 6.75448 45.5739 7.33575 45.4093 8.0659C45.3269 8.41414 45.244 8.81287 45.1616 9.22778C45.0793 9.6427 44.997 10.0744 44.9307 10.5392C44.7989 11.4519 44.7166 12.4319 44.6831 13.4274C44.6664 13.7925 44.6664 14.1414 44.6831 14.5064C44.5841 14.4566 44.4689 14.4068 44.3699 14.3737C44.1222 14.2572 43.8418 14.1414 43.5614 13.9918C43.2642 13.8423 42.9838 13.643 42.6705 13.4604C42.522 13.3439 42.3573 13.228 42.2087 13.1284C42.0601 12.9957 41.9116 12.863 41.7469 12.7303C41.4497 12.4649 41.1532 12.1658 40.8895 11.8338C40.5924 11.5017 40.3614 11.1198 40.1145 10.7547C39.8835 10.3728 39.6694 9.97476 39.4873 9.57603C39.306 9.17794 39.1574 8.76238 39.0255 8.3643C38.8769 7.96621 38.7618 7.56748 38.6628 7.18558C38.5637 6.82051 38.4814 6.45543 38.4318 6.12337C38.3 5.44307 38.2177 4.8618 38.1681 4.46307C38.1353 4.06499 38.1186 3.83196 38.1186 3.83196C38.1186 3.83196 38.1019 4.06434 38.0858 4.46307C38.0691 4.87799 38.053 5.45925 38.1025 6.15639C38.1688 6.85352 38.2672 7.66716 38.482 8.53C38.5978 8.96175 38.7129 9.39349 38.8776 9.82458C39.0422 10.2725 39.2243 10.7043 39.4552 11.136C39.6694 11.5677 39.917 11.9658 40.1974 12.3646C40.4611 12.7465 40.775 13.1115 41.0883 13.4268C41.2529 13.5925 41.4182 13.742 41.5829 13.8915C41.7475 14.0242 41.9128 14.1569 42.0775 14.2902C42.2589 14.4068 42.4403 14.5226 42.6056 14.6223C42.7702 14.7388 42.9355 14.8048 43.1002 14.9045C43.2655 14.9874 43.4301 15.054 43.5787 15.1201C43.7273 15.1699 43.8759 15.2528 44.0077 15.2858C44.2882 15.3686 44.5191 15.4515 44.7333 15.5013C44.75 15.7835 44.7828 16.0826 44.8156 16.3648C44.8819 16.8296 44.9642 17.2775 45.0793 17.7092C45.1951 18.141 45.3269 18.5229 45.4749 18.888C45.6395 19.253 45.7881 19.5689 45.9534 19.8343C46.1187 20.1165 46.2834 20.3321 46.4152 20.5152C46.4648 20.5819 46.531 20.6479 46.5799 20.6978C46.2499 20.9133 45.9367 21.1127 45.6067 21.2952C45.3591 21.4279 45.1282 21.5444 44.8812 21.6603C44.6336 21.7762 44.3866 21.8758 44.139 21.9924C43.6109 22.1917 43.0835 22.4073 42.5554 22.6235C41.4832 23.0384 40.4277 23.4701 39.405 23.9181C39.2564 23.9847 39.1246 24.0507 38.9927 24.1174C39.0255 24.0346 39.059 23.9679 39.0918 23.9019C39.2236 23.5866 39.3394 23.2546 39.4217 22.9057C39.5041 22.5568 39.5703 22.1917 39.6031 21.8267C39.6526 21.4448 39.6526 21.0797 39.6526 20.6978C39.6526 19.9508 39.5536 19.2207 39.4384 18.5397C39.3066 17.8588 39.1252 17.2451 38.9766 16.7137C38.812 16.1991 38.6299 15.7674 38.5148 15.4851C38.4325 15.2696 38.3662 15.1032 38.3334 15.0534C38.3502 15.1201 38.383 15.2689 38.4325 15.5013C38.5148 15.8166 38.5978 16.2483 38.6962 16.7797C38.7953 17.3112 38.8776 17.9416 38.9271 18.6057C38.9934 19.2699 39.0094 19.9838 38.9599 20.6809C38.9271 21.0298 38.8937 21.3781 38.8281 21.7101C38.7785 22.059 38.6962 22.3743 38.5971 22.6727C38.5476 22.8222 38.4981 22.9717 38.4318 23.1044C38.3656 23.2539 38.3328 23.3866 38.2672 23.5193C38.1353 23.7685 38.0035 24.0009 37.8716 24.2165C37.8054 24.3161 37.7398 24.4158 37.6735 24.5155C37.6073 24.5984 37.5417 24.6812 37.4754 24.7647C37.4426 24.8146 37.3931 24.8476 37.3596 24.8974C37.0464 25.0638 36.7164 25.2126 36.4032 25.3952C36.2051 25.4949 36.0237 25.6107 35.8256 25.7272C35.5284 25.8599 35.1985 26.0263 34.8524 26.225C34.5057 26.0256 34.1764 25.8599 33.8793 25.7272C33.6979 25.6114 33.4998 25.4949 33.3017 25.3952C32.9884 25.2126 32.6585 25.0631 32.3285 24.8974C32.2957 24.8476 32.2623 24.8146 32.2295 24.7647C32.1632 24.6819 32.0976 24.5984 32.0314 24.5155C31.9651 24.4158 31.8995 24.3161 31.8172 24.2165C31.6853 24.0009 31.5695 23.7685 31.4377 23.5193C31.3714 23.3866 31.3219 23.2539 31.2563 23.1044C31.2068 22.9717 31.1573 22.8222 31.1077 22.6727C31.0087 22.3736 30.9263 22.0584 30.8768 21.7101C30.8106 21.3781 30.7778 21.0298 30.745 20.6809C30.6954 19.9838 30.7122 19.2699 30.7778 18.6057C30.8273 17.9416 30.9096 17.3112 31.0087 16.7797C31.1077 16.2483 31.2068 15.8172 31.2724 15.5013C31.3219 15.2689 31.3547 15.1194 31.3714 15.0534C31.3547 15.1032 31.2891 15.2689 31.1901 15.4851C31.0743 15.7674 30.8929 16.1991 30.7282 16.7137C30.5636 17.2451 30.3983 17.8594 30.2831 18.5397C30.1513 19.22 30.0522 19.9508 30.0522 20.6978C30.0522 21.0797 30.0522 21.4448 30.1018 21.8267C30.1346 22.1917 30.2008 22.5568 30.2831 22.9057C30.3822 23.2539 30.4645 23.586 30.6131 23.9019C30.6459 23.9685 30.6794 24.0346 30.7122 24.1174C30.5803 24.0507 30.4484 23.9847 30.2999 23.9181C29.2772 23.4701 28.2217 23.0384 27.1495 22.6235C26.6214 22.4079 26.094 22.1917 25.5826 21.9924C25.3189 21.8765 25.0713 21.7768 24.8237 21.6603C24.5928 21.5438 24.3451 21.4279 24.0981 21.2952C23.7682 21.1127 23.4549 20.9133 23.1417 20.6978C23.1745 20.6479 23.2407 20.5813 23.2735 20.5152C23.4221 20.3327 23.5868 20.1165 23.7521 19.8343C23.9167 19.5689 24.0821 19.253 24.2139 18.888C24.3792 18.5229 24.5111 18.141 24.6262 17.7092C24.742 17.2775 24.8243 16.8296 24.8738 16.3648C24.9234 16.0826 24.9562 15.7835 24.9729 15.5013C25.171 15.4515 25.418 15.3686 25.6984 15.2858C25.8303 15.2528 25.9788 15.1693 26.1274 15.1201C26.276 15.0534 26.4574 14.9874 26.606 14.9045C26.7713 14.8048 26.9359 14.7382 27.1006 14.6223C27.282 14.5226 27.4473 14.4068 27.6119 14.2902C27.7933 14.1576 27.9586 14.0249 28.1233 13.8915C28.2886 13.742 28.4532 13.5925 28.6179 13.4268C28.9311 13.1115 29.245 12.7465 29.5087 12.3646C29.8059 11.9665 30.0368 11.5677 30.2677 11.136C30.4658 10.7043 30.6633 10.2725 30.8286 9.82458C30.9939 9.39284 31.109 8.9611 31.2409 8.53C31.439 7.66652 31.538 6.85352 31.6036 6.15639C31.6532 5.45925 31.6364 4.87799 31.6364 4.46307C31.6197 4.06499 31.5869 3.83196 31.5869 3.83196C31.5869 3.83196 31.5702 4.06434 31.5374 4.46307C31.4879 4.8618 31.4055 5.44242 31.2897 6.12337C31.2235 6.45543 31.1412 6.82051 31.0421 7.20241C30.9431 7.56748 30.8112 7.96621 30.6954 8.3643C30.5469 8.76238 30.3983 9.17794 30.2008 9.57603C30.0362 9.97411 29.8052 10.3728 29.5904 10.7547C29.3428 11.1198 29.0958 11.5017 28.8154 11.8338C28.5516 12.1658 28.2545 12.4649 27.9573 12.7303C27.7927 12.863 27.6441 12.9957 27.4955 13.1284C27.3309 13.228 27.1823 13.3439 27.0337 13.4604C26.7205 13.643 26.4233 13.8423 26.1429 13.9918C25.8457 14.1414 25.582 14.2572 25.3344 14.3737C25.2192 14.4068 25.1202 14.4566 25.0211 14.5064C25.0378 14.1414 25.0378 13.7925 25.0211 13.4274C25.0044 12.4312 24.906 11.4519 24.7735 10.5392C24.7072 10.0744 24.6249 9.6427 24.5426 9.22778C24.4603 8.81287 24.3779 8.41414 24.295 8.0659C24.1136 7.33575 23.9483 6.75448 23.8164 6.33957C23.7006 5.94148 23.6183 5.70846 23.6183 5.70846C23.6183 5.70846 23.6511 5.94084 23.7174 6.37258C23.7997 6.78749 23.8827 7.38494 23.965 8.11574C24.0145 8.48081 24.064 8.86271 24.0968 9.29445C24.1297 9.70937 24.1631 10.1411 24.1792 10.589C24.2454 11.5024 24.2615 12.4649 24.2287 13.4274C24.212 13.909 24.1792 14.3737 24.1129 14.8547C24.0801 15.3194 23.9972 15.7674 23.9148 16.1991C23.8325 16.6308 23.7167 17.0458 23.6177 17.4277C23.5019 17.8096 23.37 18.1578 23.2382 18.4899C23.1224 18.8051 23.0073 19.0873 22.8587 19.3365C22.7436 19.5857 22.6111 19.7845 22.5126 19.9676C22.4798 20.0343 22.4303 20.1003 22.3808 20.1502C22.1004 19.9178 21.8032 19.6854 21.5395 19.4362C20.7644 18.7222 20.1045 17.9591 19.5604 17.1785C18.9995 16.3816 18.5544 15.5848 18.1916 14.821C17.4494 13.2934 17.0204 11.9328 16.7894 10.9696C16.5418 9.99029 16.4762 9.22649 16.4762 9.22649C16.4762 9.22649 16.4762 9.99029 16.6415 10.9858C16.8062 11.982 17.0866 13.4093 17.7305 15.0197C18.126 15.9661 18.6374 16.9953 19.2812 18.0076H19.0175C18.8361 18.0245 18.6219 17.9908 18.3743 17.9908C18.1601 17.9908 17.8958 17.974 17.632 17.941C17.3683 17.908 17.0879 17.9241 16.7907 17.8743C16.5103 17.8245 16.1971 17.7914 15.8999 17.7248C15.6027 17.6419 15.2895 17.5752 14.993 17.4756C14.8444 17.4426 14.6958 17.3927 14.5312 17.3429C14.3993 17.293 14.234 17.2264 14.1022 17.1772C13.805 17.0775 13.5246 16.928 13.2448 16.8121C12.9811 16.6794 12.7167 16.5629 12.4697 16.4302C12.2388 16.2975 12.0246 16.1648 11.8098 16.0321C11.3975 15.7829 11.0675 15.5505 10.8366 15.368C10.672 15.2353 10.5562 15.1524 10.5067 15.1188C10.5395 15.1686 10.6224 15.2845 10.7704 15.4508C10.9685 15.6502 11.2489 15.9486 11.6445 16.2645C11.8259 16.4302 12.0401 16.5965 12.2716 16.7622C12.5025 16.928 12.7502 17.1105 13.0139 17.26C13.2776 17.4257 13.5419 17.5921 13.8552 17.7416C13.987 17.7914 14.1356 17.8743 14.2675 17.941C14.1684 17.9908 14.0694 18.0575 13.9542 18.1235C13.8056 18.2232 13.6075 18.2892 13.4429 18.3889C13.2615 18.5054 13.0634 18.5883 12.8653 18.6711C12.6672 18.7708 12.4363 18.8536 12.2054 18.9365C11.9912 19.0194 11.7603 19.086 11.5287 19.1689C11.2811 19.2187 11.0502 19.2847 10.8032 19.3346C10.5723 19.3844 10.3414 19.4511 10.1105 19.4841C9.87955 19.5171 9.66537 19.567 9.45054 19.5838C9.23635 19.6168 9.03825 19.6336 8.84014 19.6505C8.47738 19.6835 8.16414 19.7171 7.93323 19.7333C7.71904 19.7333 7.58719 19.7333 7.58719 19.7333C7.58719 19.7333 8.08181 19.866 8.84078 19.9327C9.22027 19.9495 9.68209 19.9825 10.1606 19.9657C10.6392 19.9489 11.1505 19.899 11.6619 19.8162C11.9095 19.7495 12.1732 19.7165 12.4369 19.6505C12.6678 19.5838 12.9315 19.5339 13.1464 19.4349C13.394 19.3521 13.6082 19.3022 13.8224 19.1857C14.0205 19.0698 14.2179 18.9863 14.4 18.8867C14.5646 18.7701 14.7132 18.6543 14.8451 18.5714C14.9608 18.4717 15.0592 18.3721 15.1422 18.2892C15.3403 18.3559 15.5217 18.4219 15.7031 18.4886C16.0163 18.6051 16.3463 18.6549 16.6434 18.7378C16.9567 18.8045 17.2538 18.8375 17.5504 18.8873C17.6989 18.8873 17.8308 18.9203 17.9626 18.9203H18.3749C18.6226 18.9203 18.8535 18.9203 19.0677 18.9035C19.2658 18.8867 19.4472 18.8536 19.579 18.8368C19.6613 18.82 19.7276 18.82 19.7932 18.8038C19.8099 18.8038 19.826 18.787 19.8427 18.787C20.1727 19.2187 20.5354 19.6505 20.9317 20.0485C21.6906 20.8454 22.5975 21.5755 23.5874 22.1898C23.8016 22.3393 24.0492 22.4552 24.2802 22.6047C24.0821 22.7212 23.8511 22.8539 23.5874 23.0034C23.2414 23.2358 22.8285 23.4183 22.3834 23.6676C22.1525 23.7672 21.9215 23.8999 21.6906 24.0164C21.443 24.1491 21.2121 24.2987 20.9317 24.3983C20.4036 24.6307 19.8594 24.8799 19.2819 25.1453C18.6882 25.3609 18.0778 25.5771 17.4507 25.8094C16.8235 25.992 16.1803 26.1913 15.5371 26.3409C15.2072 26.4075 14.8772 26.4736 14.5473 26.5564L14.0526 26.6561C13.8873 26.6729 13.7227 26.6891 13.558 26.7228C13.2281 26.7726 12.9148 26.8056 12.5849 26.8555C12.2549 26.8885 11.9417 26.9053 11.6284 26.9221C11.0013 26.9888 10.3915 26.972 9.79722 26.9888C9.51679 26.9888 9.23635 26.972 8.95592 26.9558C8.67548 26.9558 8.41177 26.939 8.16414 26.9059C7.91651 26.8891 7.66952 26.8561 7.43861 26.8393C7.2077 26.8063 6.99351 26.7726 6.77868 26.7564C6.36639 26.6898 6.01971 26.6069 5.72319 26.5571C5.44276 26.4904 5.21185 26.4412 5.06327 26.4075C4.89861 26.3577 4.81564 26.3247 4.81564 26.3247C4.81564 26.3247 5.12888 26.4742 5.68975 26.6729C5.98691 26.7558 6.33295 26.8723 6.74524 26.972C6.94334 27.005 7.17425 27.0548 7.38844 27.1215C7.63607 27.1545 7.86698 27.2043 8.11397 27.2542C8.37768 27.304 8.64204 27.337 8.92247 27.3707C9.20291 27.4037 9.48334 27.4536 9.77986 27.4704C10.3735 27.5034 11.0007 27.5701 11.6439 27.5371C11.9738 27.5371 12.3038 27.5371 12.6337 27.5202C12.9637 27.4872 13.3097 27.4704 13.6397 27.4374C13.8211 27.4374 13.9864 27.4205 14.1678 27.4044L14.6791 27.3215C15.0091 27.2717 15.3551 27.2218 15.7018 27.172C16.3778 27.0393 17.0544 26.8729 17.7305 26.7241C18.3737 26.5247 19.0336 26.326 19.644 26.1266C19.8916 26.0269 20.1225 25.9272 20.3695 25.8276C20.419 25.9939 20.4846 26.1926 20.5509 26.4088C20.6499 26.6412 20.6827 26.9066 20.7651 27.2056C20.7979 27.3552 20.8474 27.5047 20.8808 27.6704C20.9136 27.8199 20.9799 27.9856 20.9966 28.152C21.0461 28.5009 21.1285 28.8491 21.1947 29.231C21.2114 29.5961 21.2443 29.9948 21.2771 30.3929C21.2443 30.7748 21.2603 31.1897 21.2108 31.5885C21.1613 31.9865 21.1285 32.4021 21.0294 32.7834C20.9799 32.9827 20.9304 33.1653 20.8808 33.3646C20.8313 33.5472 20.7651 33.7297 20.6995 33.9122C20.6499 34.0948 20.5676 34.2605 20.5014 34.4436C20.4351 34.61 20.3695 34.7757 20.2872 34.9414C20.1225 35.2566 19.99 35.5557 19.8254 35.8211C19.6768 36.1033 19.5282 36.3357 19.3635 36.535C19.2317 36.7506 19.0998 36.9331 18.984 37.0827C18.8683 37.2154 18.7859 37.3319 18.7203 37.3979C18.6875 37.4477 18.6541 37.4646 18.638 37.4976C18.7043 37.4477 18.8522 37.3319 19.067 37.1487C19.1989 37.0322 19.3642 36.8665 19.5456 36.6839C19.7269 36.4846 19.9251 36.269 20.1064 36.0198C20.3206 35.7706 20.502 35.4722 20.7001 35.157C20.7992 35.0074 20.8982 34.8417 20.9805 34.6754C21.0796 34.5097 21.1786 34.3271 21.261 34.144C21.3433 33.9446 21.4096 33.7621 21.4919 33.5627C21.5742 33.3633 21.6405 33.1646 21.69 32.9652C21.8546 32.5665 21.9209 32.1354 22.02 31.7037C22.119 31.2719 22.1351 30.8402 22.1846 30.4091C22.2013 29.9773 22.1846 29.5462 22.1846 29.1307C22.1518 28.732 22.1023 28.3339 22.0528 27.952C22.0032 27.5869 21.8881 27.238 21.8051 26.9228C21.7228 26.6075 21.6398 26.3253 21.5414 26.0761C21.4256 25.8437 21.3433 25.6444 21.261 25.4618C21.3105 25.445 21.36 25.4288 21.3928 25.412C21.6733 25.2961 21.937 25.1628 22.1846 25.0301C22.4322 24.8974 22.6792 24.7647 22.9101 24.6482C23.3552 24.399 23.7842 24.1666 24.1309 23.9342C24.4937 23.685 24.7909 23.4863 25.0378 23.3031C25.1369 23.2365 25.236 23.1704 25.3183 23.1038C25.7801 23.3193 26.2252 23.5355 26.687 23.7349C27.7264 24.1996 28.7652 24.6475 29.7879 25.0961C30.2992 25.3285 30.8106 25.544 31.3058 25.7602C31.8005 25.9926 32.279 26.2082 32.7575 26.4412C33.0875 26.5907 33.4007 26.7564 33.714 26.9228C30.6459 28.9313 27.2479 32.6998 30.6626 38.8083V38.875H30.6954C31.3721 40.0699 32.2957 41.3315 33.5159 42.6927C31.3714 44.2695 28.3857 48.2374 33.6149 53.7653L33.4007 53.9148C30.2169 56.1389 26.1261 59.7081 31.8172 68.6057C31.9658 68.8381 32.3118 69.4025 32.6257 69.9171C33.3679 69.9838 34.1102 70 34.8524 70C35.5947 70 36.3369 69.9832 37.0792 69.9171C37.3924 69.4025 37.7391 68.8381 37.871 68.6057C39.9331 65.3686 40.7248 62.8455 40.7248 60.8201C40.7248 57.284 38.3328 55.3253 36.3041 53.9148L36.09 53.7653C41.3024 48.2374 38.3334 44.2702 36.1723 42.6927C37.4092 41.3315 38.3334 40.0699 38.9927 38.875H39.0255V38.8252C42.4563 32.716 39.0422 28.9481 35.9903 26.9228C36.3035 26.7564 36.6174 26.5907 36.9467 26.4412C37.4252 26.2088 37.9199 25.9933 38.3984 25.7602C38.9097 25.5447 39.4044 25.3285 39.9157 25.0961C40.9384 24.6482 41.9778 24.1996 43.0166 23.7349C43.4617 23.5355 43.9235 23.32 44.3859 23.1038C44.4683 23.1704 44.5506 23.2365 44.6664 23.3031C44.914 23.4857 45.2272 23.685 45.5733 23.9342C45.92 24.1666 46.3323 24.399 46.7941 24.6482C47.025 24.7647 47.2726 24.8974 47.5196 25.0301C47.7672 25.1628 48.031 25.2955 48.2947 25.412C48.3442 25.4288 48.3937 25.445 48.4432 25.4618C48.3609 25.6444 48.2786 25.8437 48.1795 26.0761C48.0638 26.3253 47.9814 26.6075 47.8991 26.9228C47.8168 27.238 47.701 27.5869 47.6515 27.952C47.6019 28.3339 47.5524 28.732 47.5196 29.1307C47.5029 29.5456 47.5029 29.9773 47.5196 30.4091C47.5691 30.8408 47.5859 31.2726 47.6849 31.7037C47.784 32.1354 47.8496 32.5665 47.9982 32.9652C48.0644 33.1646 48.13 33.3633 48.1963 33.5627C48.2953 33.7621 48.3776 33.9446 48.4439 34.144C48.5262 34.3265 48.6253 34.509 48.7076 34.6754C48.8067 34.8417 48.9057 35.0074 49.0048 35.157C49.2029 35.4722 49.4003 35.7712 49.5984 36.0198C49.7798 36.269 49.994 36.4846 50.1593 36.6839C50.3407 36.8665 50.5054 37.0322 50.6378 37.1487C50.852 37.3312 51.0006 37.4477 51.0501 37.4976C51.0501 37.4646 51.0173 37.4477 50.9839 37.3979C50.9176 37.3312 50.8353 37.2154 50.7202 37.0827C50.5883 36.9331 50.4725 36.7506 50.3246 36.535C50.1928 36.3357 50.0275 36.1033 49.8795 35.8211C49.6981 35.5557 49.5663 35.2566 49.401 34.9414C49.3347 34.7751 49.2691 34.6094 49.2029 34.4436C49.1205 34.2611 49.0543 34.0954 49.0048 33.9122C48.9385 33.7297 48.889 33.5472 48.8234 33.3646C48.7571 33.1653 48.7243 32.9827 48.6748 32.7834C48.559 32.4015 48.5429 31.9865 48.4767 31.5885C48.4439 31.1904 48.4439 30.7748 48.4272 30.3929C48.46 29.9948 48.4934 29.5961 48.5262 29.231C48.5925 28.8491 48.6581 28.5009 48.7076 28.152C48.7243 27.9863 48.7739 27.8199 48.8234 27.6704C48.8562 27.504 48.9057 27.3552 48.9385 27.2056C49.0048 26.9066 49.0543 26.6412 49.1527 26.4088C49.219 26.1933 49.2846 25.9939 49.3341 25.8276C49.565 25.9272 49.7959 26.0269 50.0435 26.1266C50.6707 26.326 51.3139 26.5247 51.9731 26.7241C52.6491 26.8736 53.3091 27.0393 54.0018 27.172C54.3485 27.2218 54.6945 27.2717 55.0245 27.3215L55.5358 27.4044C55.7011 27.4212 55.8825 27.4374 56.0472 27.4374C56.3932 27.4704 56.7232 27.4872 57.0699 27.5202C57.3998 27.5371 57.7298 27.5371 58.0597 27.5371C58.7029 27.5701 59.3301 27.504 59.9237 27.4704C60.2209 27.4536 60.5174 27.4037 60.7818 27.3707C61.0622 27.3377 61.3259 27.304 61.5735 27.2542C61.8372 27.2043 62.0849 27.1545 62.3158 27.1215C62.5467 27.0548 62.7609 27.005 62.959 26.972C63.3713 26.8723 63.718 26.7564 63.9984 26.6729C64.576 26.4736 64.8892 26.3247 64.8892 26.3247C64.8892 26.3247 64.8082 26.359 64.6596 26.4088ZM36.0076 67.9429C36.0076 67.9429 36.0076 67.9429 34.8531 67.9429C33.6985 67.9429 33.6985 67.9429 33.6985 67.9429C33.6985 67.9429 33.4348 67.5442 33.0714 66.8807H36.6347C36.2881 67.5442 36.0076 67.9429 36.0076 67.9429ZM37.1126 65.8845H32.5929C32.3124 65.2534 32.032 64.5071 31.8178 63.6934H37.8883C37.6735 64.5064 37.3931 65.2534 37.1126 65.8845ZM38.0858 62.6973H31.6197C31.4879 62.0001 31.4383 61.27 31.5046 60.5224H38.2016C38.2511 61.2693 38.2183 62.0001 38.0858 62.6973ZM38.0697 59.5262H31.6364C31.785 58.7792 32.0655 58.0491 32.5105 57.3351H37.195C37.6407 58.0491 37.9211 58.7792 38.0697 59.5262ZM36.4534 56.3389H33.2534C33.649 55.8742 34.1443 55.4424 34.7379 55.0107L34.8537 54.944L34.9695 55.0107C35.5625 55.4431 36.0572 55.8742 36.4534 56.3389ZM34.1269 52.0066H35.5786C35.3972 52.2221 35.2158 52.4383 35.001 52.6707L34.8524 52.8364L34.7039 52.6707C34.5064 52.4383 34.3089 52.2221 34.1269 52.0066ZM36.1562 51.2098H33.55C33.1705 50.6622 32.89 50.1308 32.6919 49.6492H37.0136C36.8161 50.1308 36.519 50.6622 36.1562 51.2098ZM37.2779 48.8523H32.4282C32.2796 48.2879 32.2301 47.7733 32.2629 47.2917H37.4426C37.476 47.7733 37.4265 48.2879 37.2779 48.8523ZM36.5685 44.9349C36.8817 45.3667 37.1622 45.8975 37.3107 46.4956H32.3954C32.544 45.8981 32.8244 45.3667 33.1377 44.9349H36.5685ZM33.8304 44.155C34.3417 43.6572 34.7868 43.408 34.7868 43.408C34.8036 43.408 34.8364 43.3912 34.8531 43.3581C34.8698 43.3912 34.9026 43.408 34.9026 43.408C34.9026 43.408 35.3644 43.6572 35.8758 44.155H33.8304ZM34.8531 41.582C33.9294 40.6356 33.2033 39.723 32.6096 38.8763H37.0966C36.519 39.7223 35.7767 40.6356 34.8531 41.582ZM37.6079 38.0957H32.0983C31.7355 37.4814 31.4383 36.917 31.2402 36.3693H38.4814C38.2678 36.917 37.9874 37.4814 37.6079 38.0957ZM38.7624 35.5725H30.9437C30.779 34.9751 30.6961 34.3938 30.6633 33.8624H39.0429C39.0262 34.3938 38.9271 34.9751 38.7624 35.5725ZM38.5811 31.3561C38.812 31.8707 38.9766 32.4351 39.0262 33.0662H30.68C30.7462 32.4351 30.8942 31.8707 31.1251 31.3561H38.5811ZM37.3107 29.3974C37.624 29.7463 37.9211 30.1275 38.1849 30.5593H31.5207C31.7844 30.1113 32.0983 29.7294 32.4115 29.3805C32.9396 28.8491 33.5828 28.3513 34.3083 27.8866C34.4736 27.7701 34.6711 27.6542 34.8524 27.5545C35.0338 27.6542 35.2152 27.7701 35.3966 27.8866C36.1395 28.3513 36.7827 28.8659 37.3107 29.3974Z" fill="#0772B5"/>
<path d="M69.7074 34.9252C69.7074 37.8633 69.3447 40.7185 68.652 43.441C68.1901 45.3667 67.563 47.2089 66.788 48.9857C65.7653 51.3431 64.4789 53.584 62.9776 55.6256C61.3118 57.9332 59.3815 60.0078 57.2043 61.8338C56.2311 62.6636 55.2084 63.4274 54.1529 64.1414C49.3527 67.3455 43.728 69.4038 37.6574 69.8686C38.0864 68.2581 38.6968 66.7143 39.4719 65.2871C41.6163 61.3697 44.9976 58.2323 49.1051 56.4393C51.1338 55.5596 52.7668 53.9161 53.6249 51.8577C53.6744 51.7749 53.7072 51.6914 53.7239 51.6085C54.9447 48.7035 57.8147 46.6619 61.1465 46.6619C61.196 46.6619 61.2288 46.6619 61.2783 46.6787C61.295 46.6619 61.3278 46.6619 61.3446 46.6619C61.3774 46.6619 61.4108 46.6619 61.4269 46.6787C61.8231 46.7118 62.1035 47.0276 62.1035 47.4257C62.1035 47.6413 62.0212 47.8238 61.8893 47.9571C59.8112 49.899 58.0623 52.2066 56.7592 54.7796C56.5778 55.1285 56.3964 55.4936 56.2478 55.8418C56.215 55.8916 56.1983 55.9247 56.1816 55.9745C56.1649 56.0412 56.1488 56.1072 56.1488 56.19C56.1488 56.5881 56.4788 56.904 56.8582 56.904C57.0229 56.904 57.1715 56.8542 57.2873 56.7545C57.3368 56.7215 57.3863 56.6878 57.4191 56.638C58.0128 56.0735 58.5904 55.4761 59.1345 54.8618C61.1471 52.604 62.8458 50.0479 64.1824 47.2756C64.4461 46.6943 64.7104 46.0968 64.9574 45.4994C66.3924 41.9471 67.217 38.0957 67.2832 34.0456C67.2832 33.3815 67.8274 32.8338 68.504 32.8338C69.0649 32.8338 69.5434 33.2319 69.6753 33.7634C69.692 33.9459 69.692 34.1122 69.692 34.2948C69.7074 34.5103 69.7074 34.709 69.7074 34.9252Z" fill="#0772B5"/>
<path d="M40.9564 67.594L40.7088 69.4867C39.5214 69.7022 38.3174 69.8349 37.0798 69.9184C36.7003 69.9515 36.3376 69.9683 35.9748 69.9851L38.5155 65.8845L40.9564 67.594Z" fill="#0772B5"/>
<path d="M60.6448 13.551C60.6448 13.551 59.9134 14.845 59.2825 15.2709C59.7938 15.6165 60.6197 15.4288 61.0461 14.9615C61.5021 14.4521 61.6353 12.4694 61.6353 12.4694C61.6353 12.4694 59.6832 12.7717 59.2239 13.2785C58.7975 13.7485 58.6869 14.5886 59.067 15.0754C59.3629 14.454 60.6448 13.551 60.6448 13.551Z" fill="#73BE44"/>
<path d="M64.3599 19.0783C64.3599 19.0783 63.0465 19.7968 62.2946 19.8278C62.5576 20.3942 63.3558 20.6609 63.9566 20.4881C64.6242 20.2978 65.7531 18.6782 65.7531 18.6782C65.7531 18.6782 63.9373 17.9112 63.2799 18.0996C62.6695 18.275 62.1389 18.9313 62.2161 19.5514C62.784 19.1747 64.3599 19.0783 64.3599 19.0783Z" fill="#73BE44"/>
<path d="M60.0299 19.053C60.4048 19.2601 60.9618 19.0705 61.2223 18.7171C61.4976 18.3416 61.4616 16.9687 61.4616 16.9687C61.4616 16.9687 60.134 17.3137 59.8549 17.6918C59.5989 18.0394 59.57 18.6232 59.8736 18.9352C60.0305 18.4912 60.8551 17.7778 60.8551 17.7778C60.8551 17.7778 60.4351 18.7171 60.0299 19.053Z" fill="#73BE44"/>
<path d="M59.5687 20.9347C59.3629 21.3185 59.5513 21.8694 59.9025 22.1361C60.2781 22.4196 61.6372 22.3684 61.6372 22.3684C61.6372 22.3684 61.2963 21.0441 60.9213 20.7586C60.5644 20.4926 59.9893 20.4751 59.6838 20.7761C60.1244 20.9321 60.8364 21.7645 60.8364 21.7645C60.8364 21.7645 59.8948 21.3405 59.5687 20.9347Z" fill="#73BE44"/>
<path d="M44.6014 9.12098C44.2386 8.81093 43.8849 7.78044 43.8849 7.78044C43.8849 7.78044 44.6014 8.51965 44.7654 9.02194C45.0922 8.73713 45.1166 8.14616 44.8857 7.78044C44.6297 7.37718 43.3542 6.92278 43.3542 6.92278C43.3542 6.92278 43.1883 8.28597 43.4334 8.68665C43.6694 9.06272 44.202 9.29057 44.6014 9.12098Z" fill="#73BE44"/>
<path d="M46.3799 7.50922C46.5703 7.07554 47.4424 6.42307 47.4424 6.42307C47.4424 6.42307 46.9613 7.33704 46.5349 7.63868C46.9015 7.86912 47.4611 7.71636 47.7422 7.3843C48.0528 7.02376 48.0985 5.65668 48.0985 5.65668C48.0985 5.65668 46.7555 5.90459 46.4506 6.26837C46.1644 6.60043 46.1046 7.18752 46.3799 7.50922Z" fill="#73BE44"/>
<path d="M37.314 7.48916C36.9525 7.18234 36.5916 6.14797 36.5916 6.14797C36.5916 6.14797 37.314 6.88265 37.4786 7.383C37.8028 7.10143 37.8247 6.51757 37.5938 6.14344C37.3532 5.73759 36.0668 5.28837 36.0668 5.28837C36.0668 5.28837 35.8989 6.64962 36.1511 7.05288C36.382 7.42249 36.9145 7.6594 37.314 7.48916Z" fill="#73BE44"/>
<path d="M39.0975 5.87805C39.286 5.43854 40.153 4.78931 40.153 4.78931C40.153 4.78931 39.6674 5.70069 39.2468 6.00427C39.607 6.23341 40.1678 6.08648 40.4489 5.75118C40.7686 5.38999 40.8046 4.02486 40.8046 4.02486C40.8046 4.02486 39.4667 4.276 39.1612 4.63331C38.8756 4.96666 38.8152 5.55117 39.0975 5.87805Z" fill="#73BE44"/>
<path d="M39.3066 16.4354C39.4886 16.0036 40.3627 15.3524 40.3627 15.3524C40.3627 15.3524 39.8771 16.2587 39.4462 16.5648C39.8134 16.7959 40.3788 16.6483 40.6682 16.3163C40.9686 15.9538 41.0091 14.5828 41.0091 14.5828C41.0091 14.5828 39.6771 14.832 39.3728 15.1913C39.0866 15.5292 39.0172 16.1104 39.3066 16.4354Z" fill="#73BE44"/>
<path d="M40.328 22.8118C40.6888 23.039 41.2516 22.8837 41.5404 22.5594C41.8408 22.1988 41.8916 20.8234 41.8916 20.8234C41.8916 20.8234 40.5505 21.0803 40.2367 21.4402C39.9569 21.7749 39.897 22.3542 40.1781 22.6843C40.3627 22.2448 41.2413 21.593 41.2413 21.593C41.2413 21.593 40.7493 22.5063 40.328 22.8118Z" fill="#73BE44"/>
<path d="M38.2653 16.915C38.0215 16.5169 36.7319 16.0567 36.7319 16.0567C36.7319 16.0567 36.5621 17.4205 36.8129 17.8232C37.0438 18.196 37.586 18.4271 37.979 18.2568C37.6195 17.9494 37.2631 16.917 37.2631 16.917C37.2631 16.917 37.979 17.6555 38.1437 18.1533C38.4646 17.8717 38.4962 17.2917 38.2653 16.915Z" fill="#73BE44"/>
<path d="M36.8129 24.7977C36.4527 24.4851 36.0906 23.4527 36.0906 23.4527C36.0906 23.4527 36.8129 24.1906 36.9782 24.689C37.3037 24.4126 37.3249 23.8281 37.1023 23.4527C36.8534 23.0468 35.5638 22.5976 35.5638 22.5976C35.5638 22.5976 35.3998 23.9601 35.65 24.3634C35.8803 24.7349 36.4231 24.9699 36.8129 24.7977Z" fill="#73BE44"/>
<path d="M40.1582 9.94627C40.5293 10.1722 41.0895 10.0272 41.3693 9.69124C41.68 9.332 41.7257 7.96168 41.7257 7.96168C41.7257 7.96168 40.3795 8.20959 40.0784 8.57143C39.7935 8.90672 39.7279 9.48929 40.0077 9.8194C40.2 9.38119 41.069 8.72872 41.069 8.72872C41.069 8.72872 40.5891 9.63622 40.1582 9.94627Z" fill="#73BE44"/>
<path d="M46.0846 11.7199C46.4596 11.9503 47.016 11.7962 47.3016 11.4661C47.6109 11.1036 47.6521 9.73591 47.6521 9.73591C47.6521 9.73591 46.3104 9.98705 46.0049 10.3444C45.7193 10.6822 45.6601 11.2635 45.9406 11.593C46.1252 11.1541 47.0018 10.5068 47.0018 10.5068C47.0018 10.5068 46.5117 11.4079 46.0846 11.7199Z" fill="#73BE44"/>
<path d="M46.87 18.0691C46.9813 18.5015 47.4122 18.8892 47.8419 18.8517C47.591 18.4459 47.5762 17.3513 47.5762 17.3513C47.5762 17.3513 48.0335 18.275 48.0335 18.8032C48.4246 18.6381 48.633 18.0905 48.5346 17.6626C48.4195 17.2037 47.3414 16.3713 47.3414 16.3713C47.3414 16.3713 46.7613 17.6057 46.87 18.0691Z" fill="#73BE44"/>
<path d="M50.3072 16.1946C50.0648 15.7881 50.048 14.6942 50.048 14.6942C50.048 14.6942 50.4976 15.6263 50.4976 16.1493C50.8971 15.9861 51.1093 15.4411 51.0032 15.012C50.8861 14.5492 49.8152 13.709 49.8152 13.709C49.8152 13.709 49.235 14.9537 49.3437 15.4126C49.4447 15.8437 49.8814 16.2354 50.3072 16.1946Z" fill="#73BE44"/>
<path d="M50.533 19.5922C50.3285 19.9786 50.5066 20.5314 50.8668 20.7936C51.2386 21.0803 52.6009 21.0273 52.6009 21.0273C52.6009 21.0273 52.2606 19.7003 51.8869 19.4174C51.5293 19.1508 50.9485 19.1287 50.6436 19.4349C51.0894 19.5922 51.7988 20.4227 51.7988 20.4227C51.7988 20.4227 50.8662 19.9961 50.533 19.5922Z" fill="#73BE44"/>
<path d="M52.06 11.9781C51.6387 11.7703 51.0379 10.8564 51.0379 10.8564C51.0379 10.8564 51.914 11.3923 52.1989 11.8338C52.4407 11.4804 52.3243 10.9069 52.0092 10.602C51.6695 10.2719 50.3072 10.1625 50.3072 10.1625C50.3072 10.1625 50.4861 11.5237 50.8276 11.848C51.1473 12.1516 51.7249 12.2429 52.06 11.9781Z" fill="#73BE44"/>
<path d="M54.9351 11.0473C55.2554 10.6971 55.3667 9.33394 55.3667 9.33394C55.3667 9.33394 54.0147 9.52359 53.6885 9.86148C53.3914 10.1877 53.302 10.7625 53.5612 11.103C53.7728 10.6738 54.6759 10.0699 54.6759 10.0699C54.6759 10.0699 54.1542 10.9573 53.7066 11.2422C54.0635 11.4855 54.6238 11.3638 54.9351 11.0473Z" fill="#73BE44"/>
<path d="M52.1043 17.4432C52.4607 17.6918 53.0254 17.5694 53.3284 17.2503C53.6525 16.9027 53.7612 15.5376 53.7612 15.5376C53.7612 15.5376 52.415 15.7221 52.0889 16.0645C51.7885 16.3888 51.6985 16.9687 51.9577 17.3034C52.1693 16.8814 53.0704 16.2722 53.0704 16.2722C53.0704 16.2722 52.5411 17.159 52.1043 17.4432Z" fill="#73BE44"/>
<path d="M53.5605 25.8289C54.0822 26.1913 54.9248 26.0114 55.3763 25.5421C55.8561 25.0262 56.0169 22.9989 56.0169 22.9989C56.0169 22.9989 54.0146 23.2746 53.538 23.7854C53.0923 24.2631 52.9611 25.1181 53.3464 25.623C53.6532 24.9919 54.9949 24.0883 54.9949 24.0883C54.9949 24.0883 54.2134 25.4055 53.5605 25.8289Z" fill="#73BE44"/>
<path d="M54.2037 29.8052C54.5633 30.3586 56.3668 30.9677 56.3668 30.9677C56.3668 30.9677 56.5643 29.064 56.2086 28.508C55.8754 27.9856 55.1255 27.6756 54.5742 27.9196C55.0836 28.3429 55.6053 29.7747 55.6053 29.7747C55.6053 29.7747 54.5839 28.7669 54.3478 28.075C53.8944 28.473 53.8731 29.2867 54.2037 29.8052Z" fill="#73BE44"/>
<path d="M51.557 34.7744C51.0984 34.9803 50.7369 35.5738 50.8662 36.0658C51.3537 35.6884 52.5411 35.4541 52.5411 35.4541C52.5411 35.4541 51.5087 36.2166 50.9582 36.28C51.2283 36.7085 51.9037 36.8425 52.3693 36.6321C52.8807 36.4088 53.6223 34.9699 53.6223 34.9699C53.6223 34.9699 52.0696 34.5492 51.557 34.7744Z" fill="#73BE44"/>
<path d="M48.4034 37.3856C48.312 37.8529 48.9353 39.0705 48.9353 39.0705C48.9353 39.0705 49.9818 38.1954 50.0648 37.7338C50.1561 37.3047 49.9297 36.7668 49.5361 36.6121C49.5457 37.1403 49.1353 38.0795 49.1353 38.0795C49.1353 38.0795 49.1148 36.9882 49.3341 36.5706C48.9121 36.5532 48.4889 36.9597 48.4034 37.3856Z" fill="#73BE44"/>
<path d="M47.3119 32.316C46.823 32.0882 46.1547 32.3633 45.8486 32.8202C45.5289 33.3174 45.6826 35.0256 45.6826 35.0256C45.6826 35.0256 47.3061 34.5045 47.6328 34.008C47.9319 33.5439 47.9126 32.8151 47.5177 32.4545C47.2964 33.0714 46.3805 33.9666 46.3805 33.9666C46.3805 33.9666 46.8494 32.6908 47.3119 32.316Z" fill="#73BE44"/>
<path d="M56.8287 16.0832C56.7483 15.6217 57.1438 14.5984 57.1438 14.5984C57.1438 14.5984 57.2249 15.6314 57.028 16.1156C57.4545 16.113 57.8501 15.6852 57.9157 15.2502C57.9826 14.7783 57.2892 13.5989 57.2892 13.5989C57.2892 13.5989 56.2922 14.5297 56.2221 14.9997C56.1629 15.4411 56.4183 15.9609 56.8287 16.0832Z" fill="#73BE44"/>
<path d="M44.7976 18.0348C45.0272 17.671 44.8831 17.1001 44.5551 16.8153C44.1911 16.5046 42.8333 16.4574 42.8333 16.4574C42.8333 16.4574 43.0738 17.8005 43.434 18.1151C43.7614 18.4025 44.3403 18.4633 44.6722 18.1895C44.2393 17.9953 43.5948 17.1176 43.5948 17.1176C43.5948 17.1176 44.4946 17.6057 44.7976 18.0348Z" fill="#73BE44"/>
<path d="M62.2489 25.7551C62.5589 25.2625 62.3775 23.5821 62.3775 23.5821C62.3775 23.5821 60.7901 24.1278 60.4749 24.6184C60.1842 25.0774 60.2164 25.7958 60.6158 26.1486C60.767 25.5822 61.7118 24.6359 61.7118 24.6359C61.7118 24.6359 61.2873 25.8295 60.8165 26.2755C61.3053 26.493 61.962 26.2114 62.2489 25.7551Z" fill="#73BE44"/>
<path d="M53.1212 9.00576C52.981 8.33581 53.4808 6.8341 53.4808 6.8341C53.4808 6.8341 53.6615 8.31704 53.3997 9.0323C54.0269 8.99993 54.5723 8.35717 54.6385 7.72348C54.7035 7.038 53.6371 5.3751 53.6371 5.3751C53.6371 5.3751 52.2478 6.78944 52.1796 7.47427C52.1191 8.10732 52.5192 8.84847 53.1212 9.00576Z" fill="#73BE44"/>
<path d="M45.9901 5.5544C45.9541 4.86698 46.6699 3.46236 46.6699 3.46236C46.6699 3.46236 46.6211 4.95372 46.2602 5.62366C46.8861 5.68386 47.5228 5.13302 47.6714 4.51421C47.8431 3.85203 47.0314 2.0422 47.0314 2.0422C47.0314 2.0422 45.453 3.23257 45.28 3.89475C45.1276 4.51421 45.4176 5.30585 45.9901 5.5544Z" fill="#73BE44"/>
<path d="M37.9906 3.82937C37.7751 3.14195 38.1257 1.53343 38.1257 1.53343C38.1257 1.53343 38.464 3.05521 38.2852 3.82743C38.9303 3.71998 39.4172 2.99243 39.4172 2.32766C39.4179 1.60981 38.1257 0 38.1257 0C38.1257 0 36.8425 1.62405 36.8425 2.33737C36.8431 3.00731 37.3532 3.72775 37.9906 3.82937Z" fill="#73BE44"/>
<path d="M38.8956 12.9387C38.6158 12.2804 36.8026 11.3011 36.8026 11.3011C36.8026 11.3011 36.2405 13.296 36.5228 13.9569C36.7872 14.5725 37.5236 15.0424 38.1553 14.8832C37.6934 14.3343 37.3982 12.7083 37.3982 12.7083C37.3982 12.7083 38.3006 13.977 38.426 14.7634C38.9766 14.4204 39.1567 13.5517 38.8956 12.9387Z" fill="#73BE44"/>
<path d="M64.7008 26.2386C65.2617 25.7997 66.887 25.5719 66.887 25.5719C66.887 25.5719 65.5877 26.425 64.8082 26.5202C65.1227 27.0904 65.9711 27.3079 66.595 27.0723C67.2549 26.8199 68.3059 25.0346 68.3059 25.0346C68.3059 25.0346 66.3564 24.3847 65.6797 24.6391C65.0655 24.8754 64.5651 25.5997 64.7008 26.2386Z" fill="#73BE44"/>
<path d="M62.0875 30.0997C62.748 30.3968 64.7323 29.8589 64.7323 29.8589C64.7323 29.8589 63.7861 28.0161 63.1294 27.7319C62.5171 27.4549 61.6668 27.6283 61.3163 28.1759C62.0206 28.2575 63.3346 29.2388 63.3346 29.2388C63.3346 29.2388 61.8173 28.9339 61.1966 28.4497C61.0307 29.0789 61.4867 29.8388 62.0875 30.0997Z" fill="#73BE44"/>
<path d="M48.9739 29.1805C48.5693 29.6912 48.6825 30.5677 49.125 31.0564C49.6049 31.5891 51.6342 31.9147 51.6342 31.9147C51.6342 31.9147 51.5094 29.8479 51.0289 29.31C50.5883 28.8206 49.7354 28.6193 49.1958 28.9779C49.8557 29.422 50.6128 30.7761 50.6128 30.7761C50.6128 30.7761 49.2736 29.8278 48.9739 29.1805Z" fill="#73BE44"/>
<path d="M40.4193 27.0535C40.8561 27.1895 42.0704 26.6982 42.0704 26.6982C42.0704 26.6982 41.3352 25.6101 40.8876 25.4754C40.4991 25.3512 39.9672 25.5207 39.7819 25.8975C40.2373 25.8975 41.1506 26.4127 41.1506 26.4127C41.1506 26.4127 40.1588 26.3324 39.7285 26.0819C39.6771 26.4904 40.0186 26.9351 40.4193 27.0535Z" fill="#73BE44"/>
<path d="M50.8334 39.6116C51.2019 40.222 53.1418 40.9289 53.1418 40.9289C53.1418 40.9289 53.403 38.8672 53.0254 38.2633C52.6909 37.6898 51.8869 37.3319 51.283 37.5837C51.8445 38.1442 52.3449 39.6213 52.3449 39.6213C52.3449 39.6213 51.2077 38.4342 51.0379 37.7403C50.5356 38.1623 50.4861 39.0433 50.8334 39.6116Z" fill="#73BE44"/>
<path d="M9.06269 13.551C9.06269 13.551 9.79401 14.845 10.425 15.2709C9.91364 15.6165 9.08777 15.4288 8.66133 14.9615C8.2053 14.4521 8.07216 12.4694 8.07216 12.4694C8.07216 12.4694 10.0243 12.7717 10.4835 13.2785C10.91 13.7485 11.0206 14.5886 10.6405 15.0754C10.3446 14.454 9.06269 13.551 9.06269 13.551Z" fill="#73BE44"/>
<path d="M5.34756 19.0783C5.34756 19.0783 6.66098 19.7968 7.41288 19.8278C7.14981 20.3942 6.3516 20.6609 5.75085 20.4881C5.08321 20.2978 3.95439 18.6782 3.95439 18.6782C3.95439 18.6782 5.77015 17.9112 6.4275 18.0996C7.03789 18.275 7.56853 18.9313 7.49135 19.5514C6.92341 19.1747 5.34756 19.0783 5.34756 19.0783Z" fill="#73BE44"/>
<path d="M9.67759 19.053C9.3026 19.2601 8.74559 19.0705 8.4851 18.7171C8.2098 18.3416 8.24582 16.9687 8.24582 16.9687C8.24582 16.9687 9.57339 17.3137 9.85254 17.6918C10.1085 18.0394 10.1375 18.6232 9.83389 18.9352C9.67695 18.4912 8.85236 17.7778 8.85236 17.7778C8.85236 17.7778 9.27173 18.7171 9.67759 19.053Z" fill="#73BE44"/>
<path d="M10.1381 20.9347C10.3439 21.3185 10.1555 21.8694 9.8043 22.1361C9.42867 22.4196 8.06959 22.3684 8.06959 22.3684C8.06959 22.3684 8.41048 21.0441 8.78547 20.7586C9.14245 20.4926 9.71747 20.4751 10.023 20.7761C9.58239 20.9321 8.87037 21.7645 8.87037 21.7645C8.87037 21.7645 9.81266 21.3405 10.1381 20.9347Z" fill="#73BE44"/>
<path d="M25.1054 9.12098C25.4681 8.81093 25.8219 7.78044 25.8219 7.78044C25.8219 7.78044 25.1054 8.51965 24.9414 9.02194C24.6146 8.73713 24.5902 8.14616 24.8211 7.78044C25.0771 7.37718 26.3525 6.92278 26.3525 6.92278C26.3525 6.92278 26.5185 8.28597 26.2734 8.68665C26.0374 9.06272 25.5048 9.29057 25.1054 9.12098Z" fill="#73BE44"/>
<path d="M23.3276 7.50922C23.1372 7.07554 22.265 6.42307 22.265 6.42307C22.265 6.42307 22.7461 7.33704 23.1726 7.63868C22.8059 7.86912 22.2464 7.71636 21.9653 7.3843C21.6546 7.02376 21.6089 5.65668 21.6089 5.65668C21.6089 5.65668 22.952 5.90459 23.2568 6.26837C23.5431 6.60043 23.6029 7.18752 23.3276 7.50922Z" fill="#73BE44"/>
<path d="M32.3935 7.48916C32.755 7.18234 33.1152 6.14797 33.1152 6.14797C33.1152 6.14797 32.3935 6.88265 32.2282 7.383C31.904 7.10143 31.8821 6.51757 32.113 6.14344C32.3536 5.73759 33.64 5.28837 33.64 5.28837C33.64 5.28837 33.8079 6.64962 33.5557 7.05288C33.3255 7.42249 32.7929 7.6594 32.3935 7.48916Z" fill="#73BE44"/>
<path d="M30.6092 5.87805C30.4208 5.43854 29.5538 4.78931 29.5538 4.78931C29.5538 4.78931 30.0394 5.70069 30.46 6.00427C30.0998 6.23341 29.539 6.08648 29.2579 5.75118C28.9382 5.38999 28.9022 4.02486 28.9022 4.02486C28.9022 4.02486 30.24 4.276 30.5456 4.63331C30.8318 4.96666 30.8923 5.55117 30.6092 5.87805Z" fill="#73BE44"/>
<path d="M30.4002 16.4354C30.2182 16.0036 29.3441 15.3524 29.3441 15.3524C29.3441 15.3524 29.8297 16.2587 30.2606 16.5648C29.8934 16.7959 29.328 16.6483 29.0385 16.3163C28.7382 15.9538 28.6977 14.5828 28.6977 14.5828C28.6977 14.5828 30.0297 14.832 30.334 15.1913C30.6208 15.5292 30.6903 16.1104 30.4002 16.4354Z" fill="#73BE44"/>
<path d="M29.3794 22.8118C29.0186 23.039 28.4558 22.8837 28.167 22.5594C27.8666 22.1988 27.8158 20.8234 27.8158 20.8234C27.8158 20.8234 29.1569 21.0803 29.4708 21.4402C29.7506 21.7749 29.8104 22.3542 29.5293 22.6843C29.3447 22.2448 28.4661 21.593 28.4661 21.593C28.4661 21.593 28.9575 22.5063 29.3794 22.8118Z" fill="#73BE44"/>
<path d="M31.4422 16.915C31.686 16.5169 32.9756 16.0567 32.9756 16.0567C32.9756 16.0567 33.1454 17.4205 32.8945 17.8232C32.6636 18.196 32.1214 18.4271 31.7284 18.2568C32.088 17.9494 32.4443 16.917 32.4443 16.917C32.4443 16.917 31.7284 17.6555 31.5638 18.1533C31.2428 17.8717 31.2113 17.2917 31.4422 16.915Z" fill="#73BE44"/>
<path d="M32.8945 24.7977C33.2547 24.4851 33.6168 23.4527 33.6168 23.4527C33.6168 23.4527 32.8945 24.1906 32.7292 24.689C32.4038 24.4126 32.3825 23.8281 32.6051 23.4527C32.854 23.0468 34.1436 22.5976 34.1436 22.5976C34.1436 22.5976 34.3076 23.9601 34.0574 24.3634C33.8265 24.7349 33.2843 24.9699 32.8945 24.7977Z" fill="#73BE44"/>
<path d="M29.5486 9.94627C29.1775 10.1722 28.6173 10.0272 28.3375 9.69124C28.0268 9.332 27.9811 7.96168 27.9811 7.96168C27.9811 7.96168 29.3274 8.20959 29.6284 8.57143C29.9133 8.90672 29.9789 9.48929 29.6991 9.8194C29.5068 9.38119 28.6378 8.72872 28.6378 8.72872C28.6378 8.72872 29.1183 9.63622 29.5486 9.94627Z" fill="#73BE44"/>
<path d="M23.6228 11.7199C23.2478 11.9503 22.6915 11.7962 22.4059 11.4661C22.0965 11.1036 22.0553 9.73591 22.0553 9.73591C22.0553 9.73591 23.397 9.98705 23.7026 10.3444C23.9881 10.6822 24.0473 11.2635 23.7669 11.593C23.5823 11.1541 22.7056 10.5068 22.7056 10.5068C22.7056 10.5068 23.1957 11.4079 23.6228 11.7199Z" fill="#73BE44"/>
<path d="M22.8375 18.0691C22.7262 18.5015 22.2952 18.8892 21.8656 18.8517C22.1164 18.4459 22.1312 17.3513 22.1312 17.3513C22.1312 17.3513 21.6739 18.275 21.6739 18.8032C21.2828 18.6381 21.0744 18.0905 21.1729 17.6626C21.288 17.2037 22.366 16.3713 22.366 16.3713C22.366 16.3713 22.9462 17.6057 22.8375 18.0691Z" fill="#73BE44"/>
<path d="M19.3996 16.1946C19.642 15.7881 19.6588 14.6942 19.6588 14.6942C19.6588 14.6942 19.2092 15.6263 19.2092 16.1493C18.8097 15.9861 18.5975 15.4411 18.7036 15.012C18.8207 14.5492 19.8916 13.709 19.8916 13.709C19.8916 13.709 20.4718 14.9537 20.3631 15.4126C20.2627 15.8437 19.8254 16.2354 19.3996 16.1946Z" fill="#73BE44"/>
<path d="M19.1744 19.5922C19.379 19.9786 19.2008 20.5314 18.8406 20.7936C18.4688 21.0803 17.1065 21.0273 17.1065 21.0273C17.1065 21.0273 17.4468 19.7003 17.8205 19.4174C18.1781 19.1508 18.7589 19.1287 19.0638 19.4349C18.6181 19.5922 17.9086 20.4227 17.9086 20.4227C17.9086 20.4227 18.8406 19.9961 19.1744 19.5922Z" fill="#73BE44"/>
<path d="M17.6475 11.9781C18.0688 11.7703 18.6695 10.8564 18.6695 10.8564C18.6695 10.8564 17.7935 11.3923 17.5085 11.8338C17.2667 11.4804 17.3831 10.9069 17.6983 10.602C18.0379 10.2719 19.4002 10.1625 19.4002 10.1625C19.4002 10.1625 19.2214 11.5237 18.8799 11.848C18.5602 12.1516 17.9819 12.2429 17.6475 11.9781Z" fill="#73BE44"/>
<path d="M14.7724 11.0473C14.4521 10.6971 14.3408 9.33394 14.3408 9.33394C14.3408 9.33394 15.6928 9.52359 16.0189 9.86148C16.3161 10.1877 16.4055 10.7625 16.1462 11.103C15.9346 10.6738 15.0316 10.0699 15.0316 10.0699C15.0316 10.0699 15.5532 10.9573 16.0009 11.2422C15.6433 11.4855 15.0837 11.3638 14.7724 11.0473Z" fill="#73BE44"/>
<path d="M17.6025 17.4432C17.2461 17.6918 16.6814 17.5694 16.3784 17.2503C16.0543 16.9027 15.9456 15.5376 15.9456 15.5376C15.9456 15.5376 17.2918 15.7221 17.6179 16.0645C17.9183 16.3888 18.0083 16.9687 17.7491 17.3034C17.5375 16.8814 16.6364 16.2722 16.6364 16.2722C16.6364 16.2722 17.1664 17.159 17.6025 17.4432Z" fill="#73BE44"/>
<path d="M16.1462 25.8289C15.6246 26.1913 14.782 26.0114 14.3305 25.5421C13.8507 25.0262 13.6899 22.9989 13.6899 22.9989C13.6899 22.9989 15.6922 23.2746 16.1688 23.7854C16.6145 24.2631 16.7457 25.1181 16.3604 25.623C16.0536 24.9919 14.7119 24.0883 14.7119 24.0883C14.7119 24.0883 15.494 25.4055 16.1462 25.8289Z" fill="#73BE44"/>
<path d="M15.5031 29.8052C15.1435 30.3586 13.34 30.9677 13.34 30.9677C13.34 30.9677 13.1425 29.064 13.4982 28.508C13.8314 27.9856 14.5813 27.6756 15.1326 27.9196C14.6232 28.3429 14.1015 29.7747 14.1015 29.7747C14.1015 29.7747 15.1229 28.7669 15.359 28.075C15.8131 28.473 15.8343 29.2867 15.5031 29.8052Z" fill="#73BE44"/>
<path d="M18.1498 34.7744C18.6084 34.9803 18.9699 35.5738 18.8406 36.0658C18.3531 35.6884 17.1657 35.4541 17.1657 35.4541C17.1657 35.4541 18.1981 36.2166 18.7486 36.28C18.4785 36.7085 17.8031 36.8425 17.3375 36.6321C16.8261 36.4088 16.0845 34.9699 16.0845 34.9699C16.0845 34.9699 17.6378 34.5492 18.1498 34.7744Z" fill="#73BE44"/>
<path d="M21.3034 37.3856C21.3948 37.8529 20.7715 39.0705 20.7715 39.0705C20.7715 39.0705 19.725 38.1954 19.642 37.7338C19.5507 37.3047 19.7771 36.7668 20.1708 36.6121C20.1611 37.1403 20.5715 38.0795 20.5715 38.0795C20.5715 38.0795 20.592 36.9882 20.3727 36.5706C20.7947 36.5532 21.2179 36.9597 21.3034 37.3856Z" fill="#73BE44"/>
<path d="M22.3956 32.316C22.8844 32.0882 23.5527 32.3633 23.8589 32.8202C24.1785 33.3174 24.0248 35.0256 24.0248 35.0256C24.0248 35.0256 22.4014 34.5045 22.0746 34.008C21.7755 33.5439 21.7948 32.8151 22.1898 32.4545C22.411 33.0714 23.3269 33.9666 23.3269 33.9666C23.3269 33.9666 22.858 32.6908 22.3956 32.316Z" fill="#73BE44"/>
<path d="M12.8782 16.0832C12.9586 15.6217 12.563 14.5984 12.563 14.5984C12.563 14.5984 12.4819 15.6314 12.6788 16.1156C12.2523 16.113 11.8568 15.6852 11.7911 15.2502C11.7243 14.7783 12.4176 13.5989 12.4176 13.5989C12.4176 13.5989 13.4146 14.5297 13.4847 14.9997C13.5445 15.4411 13.2892 15.9609 12.8782 16.0832Z" fill="#73BE44"/>
<path d="M24.9098 18.0348C24.6802 17.671 24.8243 17.1001 25.1523 16.8153C25.5164 16.5046 26.8742 16.4574 26.8742 16.4574C26.8742 16.4574 26.6336 17.8005 26.2734 18.1151C25.946 18.4025 25.3672 18.4633 25.0353 18.1895C25.4681 17.9953 26.1126 17.1176 26.1126 17.1176C26.1126 17.1176 25.2122 17.6057 24.9098 18.0348Z" fill="#73BE44"/>
<path d="M7.45855 25.7551C7.14853 25.2625 7.32991 23.5821 7.32991 23.5821C7.32991 23.5821 8.91733 24.1278 9.23249 24.6184C9.52322 25.0774 9.49106 25.7958 9.09228 26.1486C8.94112 25.5822 7.99626 24.6359 7.99626 24.6359C7.99626 24.6359 8.42078 25.8295 8.8916 26.2755C8.40212 26.493 7.74477 26.2114 7.45855 25.7551Z" fill="#73BE44"/>
<path d="M16.5856 9.00576C16.7258 8.33581 16.226 6.8341 16.226 6.8341C16.226 6.8341 16.0453 8.31704 16.3071 9.0323C15.6799 8.99993 15.1345 8.35717 15.0682 7.72348C15.0033 7.038 16.0697 5.3751 16.0697 5.3751C16.0697 5.3751 17.459 6.78944 17.5272 7.47427C17.5883 8.10732 17.1882 8.84847 16.5856 9.00576Z" fill="#73BE44"/>
<path d="M23.7174 5.5544C23.7534 4.86698 23.0375 3.46236 23.0375 3.46236C23.0375 3.46236 23.0864 4.95372 23.4472 5.62366C22.8214 5.68386 22.1846 5.13302 22.036 4.51421C21.8643 3.85203 22.676 2.0422 22.676 2.0422C22.676 2.0422 24.2544 3.23257 24.4274 3.89475C24.5799 4.51421 24.2898 5.30585 23.7174 5.5544Z" fill="#73BE44"/>
<path d="M31.7168 3.82937C31.9323 3.14195 31.5818 1.53343 31.5818 1.53343C31.5818 1.53343 31.2434 3.05521 31.4223 3.82743C30.7771 3.71998 30.2902 2.99243 30.2902 2.32766C30.2896 1.60981 31.5811 0 31.5811 0C31.5811 0 32.8643 1.62405 32.8643 2.33737C32.8643 3.00731 32.3542 3.72775 31.7168 3.82937Z" fill="#73BE44"/>
<path d="M30.8119 12.9387C31.0916 12.2804 32.9048 11.3011 32.9048 11.3011C32.9048 11.3011 33.467 13.296 33.1846 13.9569C32.9203 14.5725 32.1838 15.0424 31.5522 14.8832C32.014 14.3343 32.3092 12.7083 32.3092 12.7083C32.3092 12.7083 31.4068 13.977 31.2814 14.7634C30.7308 14.4204 30.5501 13.5517 30.8119 12.9387Z" fill="#73BE44"/>
<path d="M5.00603 26.2386C4.44516 25.7997 2.81979 25.5719 2.81979 25.5719C2.81979 25.5719 4.11905 26.425 4.89861 26.5202C4.58409 27.0904 3.73635 27.3079 3.1118 27.0723C2.45188 26.8199 1.40089 25.0346 1.40089 25.0346C1.40089 25.0346 3.35043 24.3847 4.02708 24.6391C4.64198 24.8754 5.14238 25.5997 5.00603 26.2386Z" fill="#73BE44"/>
<path d="M7.61935 30.0997C6.95878 30.3968 4.97451 29.8589 4.97451 29.8589C4.97451 29.8589 5.92066 28.0161 6.57736 27.7319C7.18969 27.4549 8.04 27.6283 8.39054 28.1759C7.68624 28.2575 6.37218 29.2388 6.37218 29.2388C6.37218 29.2388 7.88949 28.9339 8.51018 28.4497C8.67677 29.0789 8.22074 29.8388 7.61935 30.0997Z" fill="#73BE44"/>
<path d="M20.7336 29.1805C21.1381 29.6912 21.0249 30.5677 20.5824 31.0564C20.1026 31.5891 18.0733 31.9147 18.0733 31.9147C18.0733 31.9147 18.1981 29.8479 18.6785 29.31C19.1191 28.8206 19.972 28.6193 20.5116 28.9779C19.8517 29.422 19.0947 30.7761 19.0947 30.7761C19.0947 30.7761 20.4332 29.8278 20.7336 29.1805Z" fill="#73BE44"/>
<path d="M29.2881 27.0535C28.8514 27.1895 27.637 26.6982 27.637 26.6982C27.637 26.6982 28.3722 25.6101 28.8199 25.4754C29.2084 25.3512 29.7403 25.5207 29.9255 25.8975C29.4701 25.8975 28.5568 26.4127 28.5568 26.4127C28.5568 26.4127 29.5486 26.3324 29.9789 26.0819C30.0297 26.4904 29.6888 26.9351 29.2881 27.0535Z" fill="#73BE44"/>
<path d="M18.8741 39.6116C18.5055 40.222 16.5656 40.9289 16.5656 40.9289C16.5656 40.9289 16.3045 38.8672 16.682 38.2633C17.0165 37.6898 17.8205 37.3319 18.4245 37.5837C17.8629 38.1442 17.3625 39.6213 17.3625 39.6213C17.3625 39.6213 18.4997 38.4342 18.6695 37.7403C19.1719 38.1623 19.2214 39.0433 18.8741 39.6116Z" fill="#73BE44"/>
<path d="M0 34.9252C0 37.8633 0.362764 40.7185 1.05549 43.441C1.51731 45.3667 2.14443 47.2089 2.91948 48.9857C3.94217 51.3431 5.22857 53.584 6.7298 55.6256C8.39569 57.9332 10.3259 60.0078 12.5032 61.8338C13.4763 62.6636 14.499 63.4274 15.5545 64.1414C20.3547 67.3455 25.9795 69.4038 32.05 69.8686C31.621 68.2581 31.0106 66.7143 30.2355 65.2871C28.0911 61.3697 24.7098 58.2323 20.6023 56.4393C18.5737 55.5596 16.9406 53.9161 16.0826 51.8577C16.033 51.7749 16.0002 51.6914 15.9835 51.6085C14.7627 48.7035 11.8928 46.6619 8.56099 46.6619C8.51147 46.6619 8.47866 46.6619 8.42914 46.6787C8.41241 46.6619 8.37961 46.6619 8.36289 46.6619C8.33008 46.6619 8.29664 46.6619 8.28056 46.6787C7.88435 46.7118 7.60391 47.0276 7.60391 47.4257C7.60391 47.6413 7.68624 47.8238 7.81809 47.9571C9.89627 49.899 11.6451 52.2066 12.9483 54.7796C13.1296 55.1285 13.311 55.4936 13.4596 55.8418C13.4924 55.8916 13.5091 55.9247 13.5259 55.9745C13.5426 56.0412 13.5587 56.1072 13.5587 56.19C13.5587 56.5881 13.2287 56.904 12.8492 56.904C12.6845 56.904 12.536 56.8542 12.4202 56.7545C12.3707 56.7215 12.3211 56.6878 12.2883 56.638C11.6947 56.0735 11.1171 55.4761 10.5729 54.8618C8.56035 52.604 6.86166 50.0479 5.52509 47.2756C5.26138 46.6943 4.99702 46.0968 4.75003 45.4994C3.31505 41.9471 2.49047 38.0957 2.42422 34.0456C2.42422 33.3815 1.88007 32.8338 1.20343 32.8338C0.642556 32.8338 0.164016 33.2319 0.03216 33.7634C0.0154368 33.9459 0.0154362 34.1122 0.0154362 34.2948C-6.27856e-07 34.5103 0 34.709 0 34.9252Z" fill="#0772B5"/>
<path d="M28.751 67.594L28.9987 69.4867C30.186 69.7022 31.3901 69.8349 32.6276 69.9184C33.0071 69.9515 33.3699 69.9683 33.7326 69.9851L31.192 65.8845L28.751 67.594Z" fill="#0772B5"/>
<path d="M107.026 33.7425C104.331 37.2081 101.251 38.9358 97.7835 38.9358C96.8451 38.9358 95.6738 38.9358 94.2659 38.9358C92.8515 38.9358 80.192 38.9358 80.192 38.9358C81.0918 36.5732 81.5491 35.0255 81.5491 34.3083V12.446C81.5491 10.6815 81.0918 9.12023 80.192 7.76934H97.359C101.239 7.76934 104.49 9.43806 107.116 12.7729C109.555 15.8909 110.777 19.4497 110.777 23.4435C110.777 27.0379 109.53 30.4692 107.026 33.7425ZM92.901 9.94424H90.179L90.2311 36.8094C90.3829 36.8094 90.5874 36.8094 90.8402 36.8094C91.0884 36.8094 91.3875 36.7991 91.7252 36.7654C92.0423 36.7279 92.3227 36.713 92.5742 36.713C92.8244 36.713 93.0283 36.713 93.1808 36.713C95.8706 36.713 97.925 35.1556 99.3266 32.0402C100.43 29.5837 100.971 26.834 100.971 23.7781C100.97 14.5575 98.2839 9.94424 92.901 9.94424Z" fill="#0772B5"/>
<path d="M161.03 38.9597C161.689 38.0166 162.021 36.9945 162.021 35.889C162.021 35.2883 161.896 34.5212 161.648 33.573C161.517 33.226 161.397 32.8681 161.289 32.4894C161.187 32.1088 161.058 31.7334 160.937 31.3573C159.966 32.2337 158.56 32.6784 156.714 32.6784C156.304 32.6784 155.526 32.5347 154.37 32.2499C153.18 31.9703 152.397 31.824 152.021 31.824C150.302 31.824 149.443 32.8985 149.443 35.0436C149.443 36.2074 149.676 37.0198 150.146 37.4988C150.4 37.7435 150.637 37.9771 150.875 38.2004C151.113 38.4283 151.352 38.6581 151.604 38.9118H143.438C144.997 37.7117 145.982 36.4579 146.391 35.1316C147.298 32.1094 148.474 28.3364 149.915 23.8014C151.352 19.2678 153.088 13.9205 155.121 7.74539H162.863L170.789 34.5212C171.447 36.6586 172.226 38.1396 173.135 38.9597H161.03ZM155.871 13.0312L152.443 23.3775C152.227 24.0636 151.953 24.9057 151.628 25.8818C151.298 26.8547 150.895 28.0056 150.428 29.3261C151.617 28.7267 152.272 28.4251 153.556 28.583C153.893 28.6218 154.497 28.7267 155.686 28.9474C156.872 29.1681 157.671 29.2762 158.078 29.2762C159.14 29.2762 159.75 28.9028 159.903 28.1487C159.966 27.86 159.986 27.7046 159.953 27.6716L155.871 13.0312Z" fill="#0772B5"/>
<path d="M139.347 11.7586C139.22 12.2971 139.155 13.74 139.155 16.1052V19.0296C139.194 19.6918 139.2 20.2731 139.2 20.7793C139.2 21.2498 139.2 21.6654 139.2 22.0091V38.9112H135.59C135.22 38.0237 134.888 37.2619 134.608 36.6198C134.324 35.9802 134.076 35.4326 133.858 34.9886C133.484 34.2681 133.108 33.6027 132.732 33.0008C132.352 32.4085 131.996 31.8557 131.652 31.3566C131.15 30.697 130.51 29.9391 129.726 29.0827C128.95 28.2354 128.024 27.3111 126.958 26.2987C125.768 25.1394 124.777 24.1465 123.978 23.327C123.185 22.5088 122.567 21.8505 122.131 21.3463C120.434 19.3623 119.251 17.3965 118.559 15.4404V34.0921C118.559 35.0682 119.12 36.6579 120.25 38.8607H114.806C115.748 36.3796 116.218 34.7853 116.218 34.0921V11.6188C116.218 10.8938 115.665 9.618 114.577 7.79588H124.005C124.599 9.77465 125.502 11.5062 126.723 12.9865C127.194 13.5522 128.166 14.5329 129.636 15.9155C130.607 16.8275 131.427 17.6153 132.097 18.2723C132.77 18.939 133.307 19.486 133.717 19.9255C135.124 21.534 136.189 23.1095 136.904 24.6507C136.904 24.2125 136.904 22.9813 136.904 20.9624C136.904 18.9228 136.924 16.0391 136.959 12.3256C136.924 12.1988 136.891 12.0499 136.855 11.8758C136.828 11.7036 136.782 11.5049 136.72 11.2841C136.34 9.71251 135.842 8.56357 135.22 7.83925H141.037C140.066 9.6316 139.5 10.9398 139.347 11.7586Z" fill="#0772B5"/>
<path d="M82.6272 61.0241C82.6272 61.7762 82.2644 62.1523 81.5395 62.1523C80.7921 62.1523 80.4184 61.7762 80.4184 61.0241V47.71C80.4184 46.9578 80.7921 46.5817 81.5395 46.5817H87.381C89.0701 46.5817 90.3745 47.0103 91.2943 47.8679C92.1536 48.6803 92.5839 49.7787 92.5839 51.1626C92.5839 52.5316 92.1542 53.6152 91.2943 54.412C90.3751 55.247 89.0707 55.6645 87.381 55.6645H82.6272V61.0241ZM82.6272 48.6123V53.6333H87.8075C89.5268 53.6333 90.3861 52.81 90.3861 51.1626C90.3861 50.4402 90.1693 49.8467 89.7358 49.38C89.265 48.8686 88.6218 48.6129 87.8075 48.6129H82.6272V48.6123Z" fill="#72BE44"/>
<path d="M103.053 61.0694C103.053 61.7918 102.702 62.1523 101.999 62.1523C101.297 62.1523 100.945 61.7911 100.945 61.0694V60.8662C100.221 61.7911 99.14 62.254 97.705 62.254C96.584 62.254 95.668 61.9646 94.9579 61.3853C94.2478 60.806 93.8928 60.0538 93.8928 59.1288C93.8928 58.1288 94.2665 57.3462 95.0139 56.7818C95.7163 56.2555 96.6431 55.9921 97.7945 55.9921C99.0275 55.9921 100.063 56.383 100.9 57.1656V56.1727C100.9 54.3978 99.9813 53.5097 98.1424 53.5097C97.7012 53.5097 97.2831 53.5511 96.8869 53.634C96.5801 53.6942 96.2405 53.7919 95.8668 53.9272L95.5304 54.0515C95.3882 54.0968 95.2647 54.1195 95.1606 54.1195C94.5476 54.1195 94.2414 53.8185 94.2414 53.2165C94.2414 52.7951 94.5778 52.4494 95.2506 52.1782C96.0874 51.8397 97.112 51.6708 98.3225 51.6708C101.477 51.6708 103.054 53.1265 103.054 56.0374V61.0694H103.053ZM100.127 57.921C99.6482 57.6349 99.0879 57.4925 98.4447 57.4925C96.8528 57.4925 96.0565 58.0382 96.0565 59.1288C96.0565 60.2273 96.8335 60.7762 98.3888 60.7762C99.0841 60.7762 99.6707 60.6221 100.149 60.3134C100.65 59.9975 100.9 59.6027 100.9 59.1288C100.9 58.6324 100.643 58.2298 100.127 57.921Z" fill="#72BE44"/>
<path d="M106.84 47.642C107.677 47.642 108.096 48.0673 108.096 48.9172C108.096 49.7671 107.677 50.1923 106.84 50.1923C105.996 50.1923 105.573 49.7677 105.573 48.9172C105.573 48.0673 105.996 47.642 106.84 47.642ZM107.917 61.0694C107.917 61.7918 107.558 62.1523 106.841 62.1523C106.116 62.1523 105.753 61.7911 105.753 61.0694V52.8436C105.753 52.1213 106.116 51.7607 106.841 51.7607C107.559 51.7607 107.917 52.1219 107.917 52.8436V61.0694Z" fill="#72BE44"/>
<path d="M120.394 61.0694C120.394 61.7918 120.035 62.1523 119.318 62.1523C118.601 62.1523 118.242 61.7911 118.242 61.0694V56.4549C118.242 54.5745 117.375 53.634 115.641 53.634C114.803 53.634 114.138 53.9084 113.645 54.458C113.174 54.9849 112.939 55.6581 112.939 56.4775V61.0701C112.939 61.7924 112.576 62.153 111.851 62.153C111.133 62.153 110.775 61.7918 110.775 61.0701V52.8669C110.775 52.1297 111.134 51.7614 111.851 51.7614C112.576 51.7614 112.939 52.1297 112.939 52.8669V53.612C113.604 52.318 114.702 51.6714 116.235 51.6714C117.536 51.6714 118.56 52.1116 119.307 52.9912C120.032 53.8411 120.395 54.9622 120.395 56.3539V61.0694H120.394Z" fill="#72BE44"/>
<path d="M142.432 48.8492C142.634 49.0971 142.735 49.3567 142.735 49.6279C142.735 50.2752 142.406 50.5982 141.748 50.5982C141.397 50.5982 141.075 50.4215 140.784 50.0681C139.738 48.9023 138.407 48.3191 136.792 48.3191C134.998 48.3191 133.585 48.9055 132.554 50.0791C131.597 51.1698 131.119 52.5692 131.119 54.2767C131.119 55.9843 131.598 57.3837 132.554 58.4744C133.586 59.648 134.998 60.2344 136.792 60.2344C138.407 60.2344 139.738 59.6518 140.784 58.4854C141.075 58.132 141.397 57.9553 141.748 57.9553C142.406 57.9553 142.735 58.2789 142.735 58.9256C142.735 59.1962 142.634 59.4557 142.432 59.7043C141.101 61.4041 139.173 62.254 136.646 62.254C134.314 62.254 132.423 61.4643 130.973 59.8842C129.583 58.3799 128.888 56.5105 128.888 54.2761C128.888 52.0423 129.583 50.1729 130.973 48.6686C132.423 47.0892 134.315 46.2989 136.646 46.2989C139.173 46.2995 141.102 47.1494 142.432 48.8492Z" fill="#72BE44"/>
<path d="M153.653 61.0694C153.653 61.7918 153.302 62.1523 152.599 62.1523C151.897 62.1523 151.545 61.7911 151.545 61.0694V60.8662C150.821 61.7911 149.74 62.254 148.305 62.254C147.184 62.254 146.268 61.9646 145.558 61.3853C144.848 60.806 144.493 60.0538 144.493 59.1288C144.493 58.1288 144.866 57.3462 145.614 56.7818C146.316 56.2555 147.243 55.9921 148.394 55.9921C149.627 55.9921 150.663 56.383 151.5 57.1656V56.1727C151.5 54.3978 150.581 53.5097 148.742 53.5097C148.301 53.5097 147.883 53.5511 147.487 53.634C147.18 53.6942 146.84 53.7919 146.467 53.9272L146.13 54.0515C145.988 54.0968 145.865 54.1195 145.76 54.1195C145.147 54.1195 144.841 53.8185 144.841 53.2165C144.841 52.7951 145.178 52.4494 145.85 52.1782C146.687 51.8397 147.712 51.6708 148.922 51.6708C152.077 51.6708 153.654 53.1265 153.654 56.0374V61.0694H153.653ZM150.727 57.921C150.248 57.6349 149.688 57.4925 149.045 57.4925C147.453 57.4925 146.656 58.0382 146.656 59.1288C146.656 60.2273 147.433 60.7762 148.989 60.7762C149.684 60.7762 150.271 60.6221 150.749 60.3134C151.25 59.9975 151.5 59.6027 151.5 59.1288C151.5 58.6324 151.242 58.2298 150.727 57.921Z" fill="#72BE44"/>
<path d="M161.432 53.7466C159.488 53.7466 158.517 54.924 158.517 57.2782V61.0694C158.517 61.7918 158.154 62.1523 157.429 62.1523C156.712 62.1523 156.353 61.7911 156.353 61.0694V52.8663C156.353 52.129 156.719 51.7607 157.452 51.7607C158.162 51.7607 158.517 52.129 158.517 52.8663V53.8592C158.936 52.43 159.908 51.7154 161.432 51.7154C162.105 51.7154 162.441 52.0539 162.441 52.731C162.441 53.4081 162.105 53.7466 161.432 53.7466Z" fill="#72BE44"/>
<path d="M171.834 53.2158C172.702 54.2165 173.135 55.4723 173.135 56.9844C173.135 57.4737 172.858 57.7177 172.305 57.7177H165.444C165.578 59.5832 166.61 60.516 168.538 60.516C169.517 60.516 170.407 60.1399 171.207 59.3878C171.431 59.1547 171.667 59.0382 171.913 59.0382C172.511 59.0382 172.81 59.3392 172.81 59.9412C172.81 60.1444 172.717 60.3509 172.53 60.562C171.566 61.6902 170.205 62.2546 168.449 62.2546C166.804 62.2546 165.503 61.7316 164.547 60.6862C163.657 59.7159 163.213 58.4744 163.213 56.963C163.213 55.4438 163.699 54.1797 164.671 53.1718C165.649 52.1718 166.879 51.6714 168.359 51.6714C169.779 51.6701 170.937 52.1853 171.834 53.2158ZM171.139 55.9694C171.042 55.2399 170.751 54.6379 170.264 54.1641C169.742 53.6528 169.106 53.3971 168.359 53.3971C166.691 53.3971 165.735 54.2547 165.488 55.9694H171.139Z" fill="#72BE44"/>
</svg>
