<svg width="50" height="48" viewBox="0 0 50 48" fill="none" xmlns="http://www.w3.org/2000/svg">
<path fill-rule="evenodd" clip-rule="evenodd" d="M15.525 0C10.7495 4.39721 6.91027 9.76498 4.249 15.7652C1.56577 21.3543 0.114863 27.4848 0 33.7183C0 37.9904 0.926 41.3339 2.778 43.7486C3.63467 44.9123 4.74903 45.8483 6.02823 46.4787C7.30743 47.1091 8.71443 47.4157 10.132 47.3728C11.464 47.4238 12.7918 47.1878 14.0301 46.6798C15.2684 46.1718 16.39 45.4032 17.323 44.423C18.2589 43.3994 18.9867 42.1936 19.4637 40.8764C19.9408 39.5592 20.1574 38.1571 20.101 36.7525C20.197 34.2216 19.349 31.7487 17.731 29.8408C17.0141 28.9826 16.1233 28.2964 15.1213 27.8303C14.1193 27.3643 13.0304 27.1298 11.931 27.1433C11.1647 27.1167 10.3978 27.1733 9.643 27.3121C10.2988 23.2558 11.5671 19.3301 13.402 15.6777C15.2323 12.0005 17.5416 8.59782 20.266 5.56394L15.525 0ZM41.672 27.1443C40.9602 27.1212 40.248 27.1778 39.548 27.3132C40.1224 23.2864 41.3387 19.3849 43.148 15.7662C44.9624 12.0546 47.271 8.62173 50.007 5.56703L45.267 0C40.5115 4.48175 36.6772 9.89993 33.991 15.934C31.3218 21.4683 29.871 27.5406 29.742 33.7183C29.742 37.9904 30.6953 41.3339 32.602 43.7486C33.4792 44.9101 34.6091 45.8432 35.9007 46.4727C37.1923 47.1022 38.6095 47.4105 40.038 47.3728C41.3585 47.4294 42.6755 47.1956 43.9014 46.687C45.1272 46.1784 46.2337 45.4065 47.147 44.423C48.9926 42.3318 49.9628 39.5756 49.847 36.7525C49.943 34.2216 49.095 31.7487 47.477 29.8408C46.7601 28.9826 45.8693 28.2964 44.8673 27.8303C43.8653 27.3643 42.7764 27.1298 41.677 27.1433L41.672 27.1443Z" fill="#1955A6"/>
</svg>
