<svg width="16" height="16" viewBox="0 0 16 16" fill="none" xmlns="http://www.w3.org/2000/svg">
<path d="M8 16C3.58187 16 0 12.4181 0 8C0 3.58187 3.58187 0 8 0C12.4181 0 16 3.58187 16 8C16 12.4181 12.4181 16 8 16ZM6.15156 9.19844H6.52875V11.6156C6.52875 11.7756 6.59229 11.929 6.7054 12.0421C6.81851 12.1552 6.97192 12.2188 7.13188 12.2188H8.86812C9.02808 12.2188 9.18149 12.1552 9.2946 12.0421C9.40771 11.929 9.47125 11.7756 9.47125 11.6156V9.19844H9.84844C9.95598 9.19824 10.0614 9.16828 10.1529 9.11187C10.2445 9.05545 10.3187 8.97479 10.3672 8.87882C10.4157 8.78285 10.4367 8.67532 10.4279 8.56813C10.4191 8.46095 10.3808 8.3583 10.3172 8.27156L8.46875 6.23812C8.41462 6.1643 8.34386 6.10427 8.2622 6.06289C8.18055 6.02151 8.09029 5.99994 7.99875 5.99994C7.90721 5.99994 7.81695 6.02151 7.7353 6.06289C7.65364 6.10427 7.58288 6.1643 7.52875 6.23812L5.68062 8.27156C5.61693 8.35845 5.57859 8.4613 5.56984 8.56868C5.5611 8.67605 5.58231 8.78375 5.63111 8.8798C5.67991 8.97584 5.75439 9.05647 5.84627 9.11273C5.93815 9.16898 6.04383 9.19865 6.15156 9.19844ZM10.5069 3.78125H5.49312C5.25153 3.78125 5.01983 3.87722 4.84899 4.04806C4.67816 4.21889 4.58219 4.45059 4.58219 4.69219C4.58219 4.93378 4.67816 5.16548 4.84899 5.33632C5.01983 5.50715 5.25153 5.60312 5.49312 5.60312H10.5069C10.7485 5.60312 10.9802 5.50715 11.151 5.33632C11.3218 5.16548 11.4178 4.93378 11.4178 4.69219C11.4178 4.45059 11.3218 4.21889 11.151 4.04806C10.9802 3.87722 10.7485 3.78125 10.5069 3.78125Z" fill="white"/>
</svg>
