<svg width="20" height="21" viewBox="0 0 20 21" fill="none" xmlns="http://www.w3.org/2000/svg">
<path d="M10 3C10.6181 3 11.2223 3.18328 11.7362 3.52666C12.2501 3.87004 12.6506 4.35809 12.8871 4.92911C13.1236 5.50013 13.1855 6.12847 13.065 6.73466C12.9444 7.34085 12.6467 7.89767 12.2097 8.33471C11.7727 8.77175 11.2158 9.06937 10.6097 9.18995C10.0035 9.31053 9.37513 9.24865 8.80412 9.01212C8.2331 8.7756 7.74504 8.37506 7.40166 7.86116C7.05828 7.34725 6.875 6.74307 6.875 6.125C6.875 5.2962 7.20424 4.50134 7.79029 3.91529C8.37634 3.32924 9.1712 3 10 3ZM10 1.75C9.13471 1.75 8.28885 2.00659 7.56938 2.48732C6.84992 2.96805 6.28916 3.65133 5.95803 4.45076C5.6269 5.25019 5.54026 6.12985 5.70907 6.97852C5.87788 7.82719 6.29456 8.60674 6.90641 9.21859C7.51826 9.83045 8.29781 10.2471 9.14648 10.4159C9.99515 10.5847 10.8748 10.4981 11.6742 10.167C12.4737 9.83584 13.1569 9.27508 13.6377 8.55562C14.1184 7.83615 14.375 6.99029 14.375 6.125C14.375 4.96468 13.9141 3.85188 13.0936 3.03141C12.2731 2.21094 11.1603 1.75 10 1.75Z" fill="#0772B5"/>
<path d="M16.25 19.25H15V16.125C15 15.7146 14.9192 15.3083 14.7621 14.9291C14.6051 14.55 14.3749 14.2055 14.0847 13.9153C13.7945 13.6251 13.45 13.3949 13.0709 13.2379C12.6917 13.0808 12.2854 13 11.875 13H8.125C7.2962 13 6.50134 13.3292 5.91529 13.9153C5.32924 14.5013 5 15.2962 5 16.125V19.25H3.75V16.125C3.75 14.9647 4.21094 13.8519 5.03141 13.0314C5.85188 12.2109 6.96468 11.75 8.125 11.75H11.875C13.0353 11.75 14.1481 12.2109 14.9686 13.0314C15.7891 13.8519 16.25 14.9647 16.25 16.125V19.25Z" fill="#0772B5"/>
</svg>
